<svg xmlns="http://www.w3.org/2000/svg" width="54.295" height="34.133" viewBox="0 0 50.901194 31.999999"><path d="M27.147 32L0 16.326V15.02L23.814 2.53l27.087 14.45-1.577.91-22.177 12.804z" fill="#93c19a"/><path d="M27.147 30.694L0 15.02 23.754 1.306 50.9 16.98z" fill="#cfe2ab"/><path d="M23.754 0L2.262 12.408v2.612l21.5-12.413L48.64 16.98v-2.612z" fill="#5c6c43"/><path d="M23.754 0L2.714 12.147l-.452.261L27.14 26.78l.008 2.608L48.64 16.979v-2.612L24.206.261l-.226-.13zm0 1.306l22.623 13.061-19.23 11.102L4.525 12.41z" fill="#93c19a"/><path d="M2.262 15.02l24.885 14.368-.008-2.608L2.262 12.408z" fill="#cfe2ab"/></svg>