<svg xmlns="http://www.w3.org/2000/svg" width="230.812" height="230.814" viewBox="0 0 216.38669 216.38769"><path d="M214.963 108.194c0 58.86-47.714 106.574-106.571 106.574-58.859 0-106.572-47.714-106.572-106.574C1.82 49.335 49.533 1.621 108.392 1.621c58.857 0 106.57 47.714 106.57 106.573" fill="#fff"/><path d="M108.193 7.907c-55.386 0-100.288 44.9-100.288 100.288 0 55.387 44.902 100.286 100.288 100.286 55.387 0 100.288-44.9 100.288-100.286 0-55.388-44.901-100.288-100.288-100.288zm.861 9.85l2.923.165s-.622 10.904-.666 11.704c.76.045 6.845.391 6.845.391l-.168 2.883-9.763-.555.805-14.157.024-.431zm-5.495.219l.994 14.576-2.918.2-.994-14.578 2.487-.17.431-.029zm-8.659.7l1.764 8.256c.451 2.109.25 3.842-.596 5.148-.753 1.161-1.984 1.932-3.658 2.289-1.611.345-3.006.145-4.142-.59-1.316-.854-2.216-2.376-2.674-4.52l-1.758-8.221 2.865-.61 1.742 8.16c.493 2.307 1.635 3.286 3.392 2.912 1.152-.254 2.612-.934 1.977-3.916l-1.775-8.296 2.44-.522.423-.09zm29.334.427l4.066.972c4.343 1.04 6.303 4.314 5.238 8.765-1.257 5.238-5.284 6.248-8.632 5.448l-4.074-.975 3.302-13.79.1-.42zm2.414 3.825c-.176.734-1.89 7.897-2.063 8.63l1.222.293c1.29.31 2.367.208 3.201-.303.895-.552 1.527-1.575 1.879-3.044a6.792 6.792 0 0 0 .205-1.592c0-.765-.166-1.424-.504-1.971-.51-.832-1.424-1.411-2.714-1.72l-1.226-.293zm13.323.622l2.724 1.07-5.336 13.6-2.725-1.07 5.179-13.198.158-.402zM76 24.26c.43.017.838.102 1.216.254.912.367 1.632 1.124 2.084 2.188.203.477.303.949.303 1.407 0 .557-.337 1.062-.629 1.572 1.15.062 2.483.63 3.18 2.273.312.732.468 1.431.468 2.088 0 .502-.091.982-.273 1.435-.469 1.164-1.514 2.1-3.104 2.775l-5.423 2.31-5.724-13.446 5.602-2.383c.806-.343 1.583-.502 2.3-.473zm72.106 2.617l2.408 1.374.398 10.112s0 .384.015.649c.32-.571.798-1.418.798-1.418l3.725-6.536 2.488 1.422-7.237 12.695-2.283-1.306-.505-10.434s0-.246-.015-.413l-.79 1.401-3.742 6.569-2.494-1.421 7.023-12.32.215-.374zm-72.644.211a2.216 2.216 0 0 0-.7.181s-2.38 1.015-3 1.278l1.054 2.474 2.998-1.275c.77-.329.965-.807.965-1.208a1.5 1.5 0 0 0-.125-.58c-.226-.532-.554-.82-.99-.865-.064 0-.132-.015-.203 0zm2.326 4.928a2.822 2.822 0 0 0-.868.226l-3.035 1.293 1.445 3.394 2.981-1.268c.686-.291 1.122-.658 1.295-1.09l-.122-1.416-.951-1.034a1.652 1.652 0 0 0-.745-.105zm-21.603 2.178l9.15 11.395-2.056 1.648-9.89-3.366L53 43.73l1.016 1.248 4.733 5.897-2.235 1.797-9.15-11.394 2.165-1.738 9.55 3.349s.36.135.606.23l-1.026-1.261-4.71-5.867 1.899-1.525.337-.272zm107.687 4.022c1.325.031 2.578.528 3.655 1.453 1.749 1.497 2.426 3.317 2.016 5.408l-.082.407-2.935-.457.06-.424c.186-1.249-.057-1.933-.968-2.712-.642-.556-1.352-.807-2.106-.75-1.099.083-2.263.81-3.37 2.1-1.107 1.291-1.65 2.553-1.564 3.65.06.753.414 1.416 1.06 1.97.65.56 1.309.817 1.957.768.666-.051 1.15-.414 1.523-.776l-1.655-1.424 1.855-2.163 3.95 3.392-1.32 1.534c-1.21 1.41-2.653 2.218-4.174 2.334-1.42.109-2.818-.391-4.045-1.443-1.232-1.057-1.946-2.427-2.063-3.962-.146-1.91.643-3.974 2.222-5.812 1.579-1.84 3.501-2.933 5.412-3.078a5.77 5.77 0 0 1 .572-.015zm-55.677 4.646c36.081 0 65.33 29.25 65.33 65.333 0 36.081-29.249 65.33-65.33 65.33-36.084 0-65.334-29.249-65.334-65.33 0-36.083 29.25-65.333 65.334-65.333zM43.099 45.48l2.174 1.871-4.434 5.149 1.92 1.653c.446-.522 2.573-2.992 2.573-2.992l2.174 1.872-2.575 2.99c.472.407 2.16 1.862 2.633 2.268l4.625-5.372 2.175 1.872-6.537 7.59-11.074-9.535 6.063-7.039.283-.327zm135.643 9.81c1.971-.016 3.725.87 4.904 2.61 1.309 1.934 1.483 3.812.523 5.746l-.186.371-2.738-1.214.174-.394c.51-1.172.46-1.896-.197-2.868-.476-.7-1.089-1.127-1.828-1.27-1.075-.205-2.39.192-3.798 1.15-2.416 1.636-3.139 3.562-1.982 5.275.68 1.004 1.473 1.396 2.739 1.355l.443-.015.025 2.904-.407.028c-2.116.145-3.97-.786-5.22-2.628-.912-1.348-1.238-2.853-.947-4.366.36-1.881 1.665-3.667 3.67-5.026 1.627-1.104 3.291-1.651 4.824-1.66zM33.346 57.51l2.46 1.477-3.493 5.827 2.172 1.3 2.03-3.385 2.458 1.476s-1.675 2.797-2.029 3.385c.537.32 2.446 1.467 2.981 1.787l3.645-6.081 2.46 1.476-5.151 8.592-12.533-7.514 4.778-7.968.222-.372zm152.31 10.874c2.556-.034 4.664 1.215 5.694 3.568.656 1.496.702 3.045.142 4.485-.7 1.782-2.308 3.3-4.526 4.269-2.214.97-4.415 1.121-6.197.424-1.44-.564-2.547-1.653-3.201-3.149-.652-1.487-.7-3.033-.137-4.468.695-1.783 2.304-3.298 4.522-4.269 1.288-.563 2.543-.844 3.704-.86zm.19 2.928c-.789 0-1.699.211-2.7.65-2.077.911-3.177 2.179-3.177 3.593 0 .407.091.827.277 1.252.838 1.92 2.858 2.352 5.534 1.18 1.553-.68 2.59-1.579 2.989-2.604.278-.71.243-1.47-.1-2.258-.523-1.193-1.506-1.806-2.822-1.813zm-157.784 1.03c.598-.014 1.23.1 1.885.346 1.97.736 3.025 2.174 3.025 4.083v.08c.854-.089 6.433-.682 6.433-.682L38.232 79.3l-6.049.651c-.132.353-.64 1.71-.84 2.25l5.094 1.907-1.013 2.704-13.687-5.12 2.266-6.052c.792-2.102 2.27-3.263 4.064-3.299zm.154 2.98c-.708 0-1.268.454-1.585 1.303 0 0-1.012 2.703-1.252 3.348l3.327 1.246 1.253-3.348c.104-.281.181-.595.181-.905 0-.587-.275-1.162-1.169-1.498a2.108 2.108 0 0 0-.755-.146zm167.173 7.956l.626 2.86-8.155 1.788c-1.309.286-2.195.785-2.64 1.48-.332.522-.415 1.169-.247 1.927.181.827.525 1.394 1.056 1.733.654.421 1.62.494 2.865.22l8.291-1.817.625 2.86-8.247 1.809c-4.02.88-6.668-.617-7.46-4.217-.763-3.472 1.085-5.967 5.07-6.842l7.79-1.708.426-.092zM23.03 88.114l1.123 2.75-.395.165c-1.165.488-1.627 1.05-1.826 2.229-.143.84.015 1.577.447 2.194.64.897 1.861 1.52 3.537 1.805 2.88.486 4.73-.414 5.076-2.468.04-.23.06-.45.06-.66 0-.555-.137-1.029-.412-1.415-.386-.542-.948-.773-1.452-.906l-.365 2.156-2.809-.474.867-5.132 1.996.337c1.833.31 3.268 1.13 4.151 2.373.826 1.161 1.12 2.616.851 4.209-.27 1.598-1.074 2.917-2.33 3.81-1.56 1.107-3.737 1.497-6.126 1.093-2.389-.403-4.317-1.484-5.426-3.045a5.607 5.607 0 0 1-1.043-3.29c0-.352.031-.71.092-1.075.385-2.273 1.593-3.793 3.595-4.514l.39-.143zm175.527 12.581l.062 2.772-8.48 5.53s-.326.2-.551.341c.34-.015 1.622-.048 1.622-.048l7.523-.151.058 2.864-14.604.299-.056-2.63 8.7-5.785.348-.221c-.34.015-1.611.043-1.611.043l-7.557.155-.06-2.87 14.173-.29.431-.015zm-167.803 6.263c1.077-.016 2 .877 2.019 1.951.015 1.075-.878 1.999-1.953 2.02-1.086.015-2.018-.882-2.036-1.955-.016-1.074.887-1.998 1.97-2.016zm-1.748 5.76c.924.031 1.729.312 2.402.837 1.058.831 1.714 2.22 1.946 4.127.245 2.01-.383 4.003-1.725 5.468l-.273.3-2.265-1.823.29-.34c.809-.949 1.225-2.257 1.086-3.41-.257-2.123-1.125-2.297-1.849-2.212-.691.085-1.095.559-1.513 3-.486 2.865-1.018 4.766-3.872 5.113-1.102.135-2.128-.142-2.965-.796-1.015-.795-1.679-2.08-1.866-3.618-.22-1.837.234-3.473 1.395-5.005l.262-.349 2.334 1.8-.276.343c-.716.895-.972 1.825-.827 3.017.083.695.312 1.208.658 1.48l.831.217c.571-.072.95-.3 1.391-2.888.45-2.554 1.092-4.875 3.956-5.22.162-.018.321-.032.477-.04h.403zm160.563 3.646c.519.015 1.058.062 1.612.156 2.386.402 4.315 1.484 5.424 3.046.893 1.25 1.224 2.767.951 4.367-.39 2.304-1.568 3.78-3.595 4.515l-.391.14-1.135-2.773.396-.165c1.177-.493 1.643-1.052 1.842-2.21.142-.831-.015-1.565-.442-2.175-.637-.892-1.863-1.518-3.549-1.802-2.875-.485-4.725.409-5.071 2.45-.203 1.195.1 2.026 1.042 2.871l.331.297-1.993 2.112-.31-.26c-1.635-1.357-2.331-3.311-1.958-5.51.544-3.222 3.214-5.136 6.846-5.06zm-156.523 8.923c.914-.034 1.787.585 2.017 1.496.265 1.039-.395 2.143-1.438 2.41-1.054.264-2.166-.393-2.429-1.435-.263-1.042.404-2.148 1.457-2.416.13-.033.262-.05.392-.055zm148.033 4.196l13.943 4.362-.865 2.797-13.944-4.362.737-2.383.13-.414zm-148.186 1.606c2.176.089 3.794 1.351 4.684 3.724 1.248 3.329-.228 6.06-4.047 7.496l-7.871 2.953-1.029-2.742 7.817-2.931c1.248-.467 2.056-1.086 2.399-1.837.257-.564.249-1.218-.024-1.946-.42-1.107-1.299-2.448-4.165-1.374l-7.943 2.976-1.027-2.738 7.909-2.968c1.204-.451 2.308-.654 3.297-.613zm146.14 4.781l13.272 6.122-1.233 2.66s-9.91-4.58-10.642-4.913c-.317.69-2.87 6.221-2.87 6.221l-2.625-1.21 3.916-8.487.182-.393zM64.356 168.562s3.082 1.82 3.156 2.12l-5.084 8.594c-1.397 2.368-1.137 4.51.689 5.59 1.837 1.084 3.84.305 5.224-2.034 0 0 5.11-8.64 5.407-8.717 0 0 3.076 1.82 3.153 2.117l-5.084 8.596c-1.4 2.371-3.193 3.895-5.186 4.409-1.753.451-3.658.108-5.516-.986-1.813-1.075-3.013-2.58-3.472-4.356a6.783 6.783 0 0 1-.205-1.674c0-1.566.51-3.245 1.51-4.942 0 0 5.109-8.64 5.408-8.717zm85.043 2.689c1.504-.037 2.979.477 4.381 1.596 0 0-2.13 2.974-2.424 3.03-1.166-.758-2.337-.779-3.581-.07-.872.492-1.444 1.206-1.697 2.118-.357 1.294-.036 2.926.91 4.597.928 1.64 2.17 2.744 3.496 3.111.928.258 1.835.137 2.697-.35 1.277-.727 1.767-1.682 2.028-3.733 0 0 3.505.067 3.719.27.197 3.064-1.107 5.411-3.875 6.976-1.872 1.063-3.87 1.344-5.787.814-2.316-.64-4.34-2.39-5.851-5.06-1.451-2.55-1.895-5.248-1.246-7.594.546-1.98 1.82-3.586 3.687-4.643 1.185-.67 2.372-1.034 3.543-1.062zm-62.732 8.124c.723 0 1.473.11 2.225.317 2.542.699 4.397 2.18 5.589 4.827 0 0-3.152 1.735-3.446 1.65-.825-1.482-1.872-2.353-3.302-2.744-1.409-.387-2.389-.117-2.624.725-.247.91.226 1.377 2.803 2.776 2.075 1.127 5.546 3.009 4.411 7.144-.443 1.629-1.291 2.812-2.521 3.513-1.518.866-3.545.96-6.022.28-2.936-.805-5.175-2.713-5.885-5.37 0 0 3.093-1.53 3.386-1.43.74 1.554 1.997 2.585 3.737 3.06 1.206.334 2.22.35 2.586.048.367-.303.572-.543.663-.946.09-.402.074-.314.074-.466 0-.679-.608-1.309-3.168-2.677-2.215-1.2-4.329-2.6-4.329-5.246 0-.499.076-1.038.238-1.632.361-1.329 1.168-2.38 2.334-3.049.92-.526 2.047-.79 3.251-.78zm44.502.165c2.328.062 3.975 1.323 4.57 3.604.102.39.152.78.152 1.161 0 .986-.425 1.87-1.059 2.625 1.673.37 2.911 1.49 3.354 3.2a7.22 7.22 0 0 1 .246 1.818c0 .978-.234 1.87-.703 2.67-.825 1.407-2.348 2.431-4.403 2.962 0 0-7.863 2.043-8.124 1.891 0 0-4.497-17.305-4.344-17.57l7.94-2.063a9.041 9.041 0 0 1 1.898-.294c.16 0 .318-.015.473 0zm-22.992 2.773c3.419.06 5.61 1.558 6.773 5 0 0-3.419 1.351-3.691 1.242-.657-1.37-1.425-2.228-3.199-2.26-2.465-.039-4.03 2.028-4.081 5.392-.033 1.922.474 3.522 1.43 4.511.664.687 1.507 1.042 2.499 1.056 2.046.036 3.074-.724 3.54-2.215 0 0-2.836-.045-3.05-.265 0 0 .052-3.349.273-3.563 0 0 6.412.103 6.626.324l-.036 2.353c-.076 4.505-3.026 7.37-7.519 7.3-4.88-.08-7.97-3.837-7.88-9.568.09-5.556 3.51-9.38 8.315-9.307zm22.452 1.036c-.28-.015-.622.027-1.044.135 0 0-3.812.993-4.19 1.09.126.502.589 2.336.589 2.82 0 .064-.015.094-.033.1.037-.015 4.552-1.183 4.552-1.183s1.066-.337 1.289-.79c.223-.452.085-1.085.085-1.085-.139-.535-.41-1.047-1.249-1.086zm1.842 6.299c-.305-.015-.65.037-1.034.137l-4.394 1.145c.141.55.883 3.454.883 4.02 0 .055-.015.08-.025.083.028 0 4.588-1.189 4.588-1.189 1.209-.317 1.831-.98 1.831-1.937 0-.214-.033-.446-.094-.69-.277-1.032-.84-1.545-1.754-1.57z" fill="#8ac37a"/><path d="M108.907 159.124s-.082.717-.646.696c-.563-.021-.528-.696-.528-.696s-.41-24.812-.41-41.802c0-16.991.41-35.502.41-35.502s.15-.704.622-.704c.473 0 .552.704.552.704s.41 18.51.41 35.502c0 16.99-.41 41.802-.41 41.802m46.393-36.678c1.015-.478 13.392-4.29 10.548-11.675-1.996-5.194-5.84.957-8.52-1.045-.86-.64-1.394-1.15 2.368-4.8 3.768-3.662 4.91-6.26 5.29-8.511.369-2.251.366-3.968-1.18-4.836-1.548-.867-3.59 1.423-4.203-.952-.377-1.275.108-1.994.114-4.271.015-2.492-2.545-8.72-8.488-6.618-3.844 1.356-1.804 7.983-2.794 9.237-1.018 1.284-1.881-2.645-4.041-3.264-2.49-.708-4.23 1.598-4.209 3.736.021 2.138 1.411 6.117 1.872 7.657.258 1.224.922 4.55.505 5.527-.634 1.473-1.174.991-2.594-.88-1.254-1.656-.594-.963-2.806-3.623-2.753-3.392-4.426 1.31-4.626 4.456-.2 3.144 2.19 14.09 2.149 15.542-.165 6.562-3.816-.963-3.933-1.141-2.395-3.649-7.003-1.94-5.562 1.977 2.627 7.138 4.98 13.301 2.498 19.424-.335.818-.78 2.248-1.392 3.669 20.229-18.834 25.79-44.92 25.796-44.949.077-.27.557-.528.804-.447.253.08.373.583.296.856-.015.043-6.61 38.785-41.872 58.566-.781.426-.873-.033-1.022-.734.168-6.14.423-10.31 2.7-11.663 18.992-11.276 12.823-16.462 8.884-17.232-3.938-.769-6.186-7.21-.756-10.01 9.561-5.377 14.45-24.577 2.576-20.38-1.086.091-8.893 4.156-2.007-7.619 6.515-11.782 4.507-22.27-2.248-17.703-1.774 1.195-6.79 6.506-5.786-1.175 1.794-11.657-1.094-15.814-4.514-16.577 0 0-.358-.06-.645-.092l-.31.015v-.034c-.203-.018-.96.112-.96.112-3.422.763-6.306 4.92-4.515 16.577 1.002 7.68-4.012 2.37-5.782 1.174-6.758-4.567-8.762 5.922-2.246 17.704 6.88 11.775-.926 7.71-2.012 7.619-11.874-4.197-6.986 15.002 2.58 20.38 5.431 2.8 3.18 9.24-.758 10.01-3.937.77-10.11 5.956 8.881 17.231 2.282 1.357 2.56 5.554 2.726 11.714-.154.68-.27 1.1-1.04.684-35.264-19.782-41.86-58.523-41.87-58.566-.076-.274.116-.777.367-.856.248-.082.641.356.716.625.015.028 5.585 25.936 25.814 44.77-.614-1.42-1.059-2.85-1.393-3.668-2.483-6.123-.128-12.286 2.497-19.424 1.44-3.918-3.166-5.626-5.56-1.978-.12.179-3.769 7.704-3.935 1.141-.042-1.452 2.347-12.397 2.147-15.541-.199-3.146-1.87-7.849-4.622-4.456-2.213 2.66-1.554 1.967-2.808 3.622-1.418 1.872-1.96 2.354-2.594.88-.415-.977.245-4.303.505-5.526.46-1.54 1.852-5.52 1.872-7.657.021-2.138-1.72-4.444-4.206-3.736-2.16.618-3.025 4.548-4.043 3.263-.988-1.253 1.05-7.88-2.795-9.236-5.943-2.102-8.498 4.126-8.488 6.618 0 2.277.492 2.995.113 4.27-.613 2.376-2.654.085-4.202.952-1.546.868-1.55 2.585-1.18 4.837.38 2.25 1.522 4.848 5.288 8.51 3.766 3.65 3.23 4.16 2.37 4.8-2.68 2.002-6.522-4.148-8.52 1.045-2.844 7.385 9.533 11.198 10.548 11.676 2.652 1.268 4.109 4.162.488 3.31-1.46-.34-3.689-1.402-5.434.54-4.612 5.143 7.41 14.105 15.393 15.758 7.983 1.652 15.127 4.699 18.14 6.073 2.974 1.35 15.663 10.052 16.546 13.58.224 1.04.769 1.805 1.991 1.805 1.22 0 1.746-.681 1.972-1.738.808-3.45 13.547-12.294 16.53-13.647 3.011-1.374 10.155-4.42 18.138-6.073 7.983-1.653 20.004-10.615 15.394-15.758-1.746-1.942-3.974-.88-5.433-.54-3.621.852-2.166-2.042.487-3.31" fill="#8ac37a"/><path d="M108.196 212.317c-57.505 0-104.121-46.62-104.121-104.123 0-57.502 46.616-104.117 104.121-104.117 57.5 0 104.117 46.615 104.117 104.117 0 57.503-46.616 104.123-104.117 104.123m0-212.317C48.441 0 0 48.438 0 108.194c0 59.758 48.441 108.194 108.196 108.194 59.752 0 108.19-48.436 108.19-108.194C216.387 48.438 167.949 0 108.197 0" fill="#5c6c43"/><path d="M190.993 189.486h.94c.959 0 1.27-.277 1.27-.846 0-.492-.238-.769-1.139-.769h-1.07zm0 2.882h-.792v-5.143h1.97c1.226 0 1.828.458 1.828 1.468 0 .921-.58 1.321-1.348 1.415l1.468 2.26h-.866l-1.37-2.237h-.89zm.951-6.31c-2.069 0-3.666 1.596-3.666 3.727 0 2.172 1.597 3.744 3.666 3.744 2.043 0 3.639-1.572 3.639-3.744 0-2.131-1.596-3.728-3.639-3.728m0-.721c2.427 0 4.505 1.89 4.505 4.45 0 2.582-2.078 4.466-4.505 4.466-2.454 0-4.531-1.884-4.531-4.467 0-2.56 2.077-4.45 4.531-4.45" fill="#7e8083"/></svg>