<svg xmlns="http://www.w3.org/2000/svg" xmlns:xlink="http://www.w3.org/1999/xlink" width="23.11" height="34.133" viewBox="0 0 21.665158 31.999999"><defs><radialGradient r="4.109" fy="461.095" fx="-61.488" cy="461.095" cx="-61.488" gradientTransform="matrix(1.7248 0 0 -.60411 1343.434 71.33)" gradientUnits="userSpaceOnUse" id="b" xlink:href="#a"/><linearGradient id="a"><stop offset="0" stop-color="#cfe2ab"/><stop offset="1" stop-color="#5c6c43"/></linearGradient><radialGradient r="4.109" fy="461.095" fx="-61.488" cy="461.095" cx="-61.488" gradientTransform="matrix(1.7248 0 0 -.60411 1343.434 71.33)" gradientUnits="userSpaceOnUse" id="c" xlink:href="#a"/></defs><path style="isolation:auto;mix-blend-mode:normal" d="M.665 3.837L6.645.384v22.638H.666z" color="#000" overflow="visible" fill="#f59088" stroke-width="4.9" stroke-miterlimit="10"/><path d="M3.987 23.405L.665 21.487l5.98-3.453 3.324 1.918z" fill="#aec18d" fill-rule="evenodd" stroke-width=".8"/><path d="M3.987 25.707v-3.07l6.646 3.838v3.07z" fill="#5c6c43" fill-rule="evenodd" stroke-width=".8"/><path d="M3.987 23.405L.665 21.487v1.535l3.322 1.918z" fill="#7f9062" fill-opacity=".994" fill-rule="evenodd" stroke-width=".8"/><path d="M10.633 29.544v-3.07l5.716-3.299v3.07z" fill="#a7b987" fill-opacity=".999" fill-rule="evenodd" stroke-width=".8"/><path d="M12.361 27.78v-1.535l7.31 4.22V32z" fill="#5c6c43" fill-rule="evenodd" stroke-width=".8"/><path d="M9.703 19.338l-5.716 3.3 1.994 1.151 4.652 2.686 5.716-3.3z" fill="#cfe2ab" fill-rule="evenodd" stroke-width=".8"/><path d="M19.671 32l1.994-1.151v-1.535l-1.994 1.151z" fill="#a7b987" fill-rule="evenodd" stroke-width=".8"/><path d="M1236.471-207.034c-.698.403-.81 1.194 0 1.662.539.311 1.32.345 1.919 0 .625-.361.7-1.208 0-1.662-.459-.264-1.315-.349-1.919 0z" fill="url(#b)" fill-rule="evenodd" stroke-width=".8" transform="translate(-323.137 86.507) scale(.27709)"/><path d="M.665 23.022L0 22.638V3.453l.665.384z" fill="#ad605b" fill-rule="evenodd" stroke-width=".8"/><path d="M0 3.453L5.981 0l.665.384L.665 3.837z" fill="#f8b3ae" fill-rule="evenodd" stroke-width=".8"/><path d="M.665 3.837L6.645.384v22.638H.666z" style="isolation:auto;mix-blend-mode:normal" color="#000" overflow="visible" fill="#f59088" stroke-width="4.9" stroke-miterlimit="10"/><path d="M3.987 23.405L.665 21.487l5.98-3.453 3.324 1.918z" fill="#aec18d" fill-rule="evenodd" stroke-width=".8"/><path d="M3.987 25.707v-3.07l6.646 3.838v3.07z" fill="#5c6c43" fill-rule="evenodd" stroke-width=".8"/><path d="M3.987 23.405L.665 21.487v1.535l3.322 1.918z" fill="#7f9062" fill-opacity=".994" fill-rule="evenodd" stroke-width=".8"/><path d="M10.633 29.544v-3.07l5.716-3.299v3.07z" fill="#a7b987" fill-opacity=".999" fill-rule="evenodd" stroke-width=".8"/><path d="M12.361 27.78v-1.535l7.31 4.22V32z" fill="#5c6c43" fill-rule="evenodd" stroke-width=".8"/><path d="M14.355 25.094l-1.994 1.15 7.31 4.221 1.994-1.15zm-4.652-5.756l-5.716 3.3 1.994 1.151 4.652 2.686 5.716-3.3z" fill="#cfe2ab" fill-rule="evenodd" stroke-width=".8"/><path d="M1236.471-207.034c-.698.403-.81 1.194 0 1.662.539.311 1.32.345 1.919 0 .625-.361.7-1.208 0-1.662-.459-.264-1.315-.349-1.919 0z" fill="url(#c)" fill-rule="evenodd" stroke-width=".8" transform="translate(-323.137 86.507) scale(.27709)"/><path d="M.665 23.022L0 22.638V3.453l.665.384z" fill="#ad605b" fill-rule="evenodd" stroke-width=".8"/><path d="M0 3.453L5.981 0l.665.384L.665 3.837z" fill="#f8b3ae" fill-rule="evenodd" stroke-width=".8"/></svg>