<svg xmlns="http://www.w3.org/2000/svg" width="29.442" height="34.133" viewBox="0 0 27.602058 31.999999"><g fill-rule="evenodd" stroke-width=".8"><path d="M6.056 10.696v-2.8L11.26 4.89v2.8z" fill="#a7b987" fill-opacity=".999"/><path d="M5.204 1.4L0 4.405l1.815 1.048 4.236 2.445 5.204-3.004z" fill="#cfe2ab"/><path d="M10.292 29.205v-5.59h1.936l-.121 4.542zM16.342 32l.005-18.169 5.199-3.001.005 18.163z" fill="#a7b987" fill-opacity=".999"/><path d="M11.26 4.89L6.056 7.896l3.872 2.23 6.42 3.706 5.198-3.001z" fill="#cfe2ab"/><path d="M8.476 3.004v6.287l-2.42-1.396-6.05-3.493v2.8l6.05 3.494V26.76l4.236 2.445v-5.59l1.817 1.05-.004 4.89L16.341 32v-4.89l.005-13.279-1.82-1.05V6.498L8.474 3.004zm7.871 10.827v2.8l6.051 3.494v-2.8z" fill="#5c6c43"/><path d="M22.398 20.125v-2.8l5.204-3.005v2.8z" fill="#a7b987" fill-opacity=".999"/><path d="M21.546 10.83l-5.204 3.004 1.816 1.048 4.235 2.446 5.204-3.005z" fill="#cfe2ab"/><path d="M14.527 12.786V6.498l5.204-3.005v6.289z" fill="#a7b987" fill-opacity=".999"/><path d="M13.68 0L8.476 3.004l1.816 1.048 4.235 2.446 5.204-3.005z" fill="#cfe2ab"/></g></svg>