<svg xmlns="http://www.w3.org/2000/svg" xmlns:xlink="http://www.w3.org/1999/xlink" width="47.595" height="34.133" viewBox="0 0 44.620283 31.999999"><defs><radialGradient xlink:href="#a" id="b" gradientUnits="userSpaceOnUse" gradientTransform="matrix(5.88463 0 0 -2.06109 1793.777 1673.439)" cx="-61.488" cy="461.095" fx="-61.488" fy="461.095" r="4.109"/><linearGradient id="a"><stop offset="0" stop-color="#cfe2ab"/><stop offset="1" stop-color="#5c6c43"/></linearGradient></defs><path d="M28.03 10.531l.007-1.129z" fill="#5c6c43"/><path d="M4.09 17.353V9.875l15.236 8.869v7.406zm19.198 4.97v-3.519l16.761 9.677V32z" fill="#5c6c43" fill-rule="evenodd" stroke-width=".8"/><path d="M17.193 2.31L4.09 9.874l4.571 3.079 10.666 5.79 13.104-7.566z" fill="#cfe2ab" fill-rule="evenodd" stroke-width=".8"/><path d="M40.05 32l4.57-2.64v-3.518l-4.57 2.64z" fill="#a7b987" fill-rule="evenodd" stroke-width=".8"/><path d="M1428.844 723.728c-2.38 1.374-2.767 4.072 0 5.67 1.838 1.06 4.505 1.177 6.546 0 2.134-1.233 2.387-4.122 0-5.67-1.563-.903-4.485-1.19-6.546 0z" fill="url(#b)" fill-rule="evenodd" stroke-width=".8" transform="translate(-226.47 -109.32) scale(.1862)"/><path d="M4.051 17.814l.038-7.94 15.39 8.93v7.918z" fill="#5c6c43" fill-rule="evenodd" stroke-width=".8"/><path d="M19.479 26.722v-7.918l13.142-7.588v7.918z" fill="#a7b987" fill-opacity=".999" fill-rule="evenodd" stroke-width=".8"/><path d="M23.288 22.323v-3.519l16.761 9.677V32z" fill="#5c6c43" fill-rule="evenodd" stroke-width=".8"/><path d="M27.86 16.165l-4.572 2.64L40.05 28.48l4.571-2.64z" fill="#cfe2ab" fill-rule="evenodd" stroke-width=".8"/><path d="M0 10.263l.051-4.655 11.085 6.466-.013 4.633zm8.622-4.985L8.673.623 19.76 7.09l-.014 4.633z" fill="#5c6c43" fill-rule="evenodd" stroke-width=".8"/><path d="M17.193 2.31L4.09 9.874l15.39 8.93 13.142-7.589z" fill="#cfe2ab" fill-rule="evenodd" stroke-width=".8"/><path d="M9.765 0L8.673.623l15.39 8.93 1.13-.646zM1.143 4.985L.05 5.608l15.39 8.93 1.13-.646z" fill="#cfe2ab" fill-rule="evenodd" stroke-width=".8"/><path d="M10.336 8.907l6.857-1.98 1.714 2.97 8 .66-11.428 1.98v-3.3z" fill="#e8f1d8" fill-rule="evenodd" stroke-width=".937"/><path d="M10.336 8.907v-.66l6.857-1.979 1.714 2.97 8 .659v.66l-8-.66-1.714-2.97z" fill="#5c6c43" fill-rule="evenodd" stroke-width=".937"/></svg>