<svg xmlns="http://www.w3.org/2000/svg" width="44.182" height="34.133" viewBox="0 0 41.420664 31.999999"><path d="M22.091 32L0 19.246v-1.063L19.379 8.018l22.042 11.76-1.284.74-18.046 10.42z" fill="#5c6c43"/><path d="M22.091 30.937L0 18.183l19.33-11.16 22.09 12.754z" fill="#93c19a"/><path d="M41.414 20.844L22.09 32v-1.063l19.33-11.16z" fill="#5c6c43"/><path d="M29.923 7.306L17.27 0l-1.325.765.571 12.272 2.045 1.176z" fill="#93c19a"/><path d="M28.305 7.901L15.945.765v12.467l2.158 1.246z" fill="#5c6c43"/><path d="M17.857 26.507l.294.17 6.77-3.909v-.17l2.06-1.189.147.085 1.913-1.104V7.816l-.295-.17-10.889 6.287z" fill="#f59088"/><path d="M16.827 25.912l1.324.764V14.103l-1.324-.765zm5.886-8.836l.147.085v-5.777l-.147-.085z" fill="#5c6c43"/><path d="M18.887 17.586l.147.085 2.943-1.7-.147-.084zm2.943 0l.147.085.883-.51-.147-.085z" fill="#93c19a"/><path d="M25.509 19.71l.147.085v-1.7l-.147-.084zm1.471 1.7l.148.084v-2.549l-.148-.085z" fill="#5c6c43"/><path d="M18.151 26.676l6.77-3.908V18.52l.735-.424v1.699l1.472-.85v2.55l1.913-1.105V7.816l-6.18 3.568v5.778l-.884.51v-1.7l-2.943 1.7v-4.079l-.883.51v4.078z" fill="#cfe2ab"/><path d="M27.863 6.966l-11.036 6.372 1.324.765 10.89-6.287z" fill="#93c19a"/><path d="M18.151 26.676l6.77-3.908 2.207-1.274 2.795-1.614V7.306l-7.063 4.078-3.826 2.21-.883.509v4.078z" fill="#cfe2ab"/></svg>