<svg xmlns="http://www.w3.org/2000/svg" width="15.664" height="34.133" viewBox="0 0 14.685379 31.999999"><path d="M12.79 10.94l-12 6.9V8.917l12-6.728zm-.016 11.497L.947 29.265l-.157-8.77 12-6.82zM0 7.932l.055 23.552 13.87-7.526L13.737 0z" fill="#5c6c43"/><path d="M14.685.547L13.738 0 0 7.974l.055 23.51.61.353.282.163.454-2.152v-8.924l5.49-3.057 1.496-3.46-6.986 3.863V9.345l12.073-6.97v.268z" fill="#5c6c43"/><path d="M14.685.547L.947 8.479V32l13.738-7.932zm-.947 7.658v3.282L1.895 18.325v-3.282zm0 6.017v8.752L1.895 29.812V21.06z" fill="#93c19a"/><path d="M1.895 14.36v.683l11.843-6.838c.141-.23.129-.544 0-.683z" fill="#cfe2ab" fill-rule="evenodd" stroke-width=".8"/></svg>