<?xml version="1.0" encoding="utf-8"?>
<!-- Generator: Adobe Illustrator 19.2.1, SVG Export Plug-In . SVG Version: 6.00 Build 0)  -->
<svg version="1.1" id="Layer_1" xmlns="http://www.w3.org/2000/svg" xmlns:xlink="http://www.w3.org/1999/xlink" x="0px" y="0px"
	 viewBox="0 0 99.1 99.1" style="enable-background:new 0 0 99.1 99.1;" xml:space="preserve">
<style type="text/css">
	.st0{fill:#FFFFFF;}
</style>
<polygon class="st0" points="49.6,74.2 20,44.6 27,37.5 49.6,60 72.1,37.5 79.2,44.6 "/>
<path class="st0" d="M49.6,99.1C22.2,99.1,0,76.9,0,49.6C0,22.2,22.2,0,49.6,0s49.6,22.2,49.6,49.6C99.1,76.9,76.9,99.1,49.6,99.1z
	 M49.6,12C28.9,12,12,28.9,12,49.6s16.9,37.6,37.6,37.6c20.7,0,37.6-16.9,37.6-37.6S70.3,12,49.6,12z"/>
</svg>
