<?xml version="1.0" encoding="UTF-8" standalone="no"?>
<!-- Created with Inkscape (http://www.inkscape.org/) -->

<svg
   xmlns:dc="http://purl.org/dc/elements/1.1/"
   xmlns:cc="http://creativecommons.org/ns#"
   xmlns:rdf="http://www.w3.org/1999/02/22-rdf-syntax-ns#"
   xmlns:svg="http://www.w3.org/2000/svg"
   xmlns="http://www.w3.org/2000/svg"
   xmlns:sodipodi="http://sodipodi.sourceforge.net/DTD/sodipodi-0.dtd"
   xmlns:inkscape="http://www.inkscape.org/namespaces/inkscape"
   width="61.069134mm"
   height="61.069416mm"
   viewBox="0 0 216.38669 216.38769"
   id="svg5676"
   version="1.1"
   inkscape:version="0.91 r13725"
   sodipodi:docname="leed.svg">
  <defs
     id="defs5678" />
  <sodipodi:namedview
     id="base"
     pagecolor="#ffffff"
     bordercolor="#666666"
     borderopacity="1.0"
     inkscape:pageopacity="0.0"
     inkscape:pageshadow="2"
     inkscape:zoom="0.35"
     inkscape:cx="266.05049"
     inkscape:cy="-468.94901"
     inkscape:document-units="px"
     inkscape:current-layer="layer1"
     showgrid="false"
     fit-margin-top="0"
     fit-margin-left="0"
     fit-margin-right="0"
     fit-margin-bottom="0"
     inkscape:window-width="1280"
     inkscape:window-height="973"
     inkscape:window-x="0"
     inkscape:window-y="25"
     inkscape:window-maximized="1" />
  <metadata
     id="metadata5681">
    <rdf:RDF>
      <cc:Work
         rdf:about="">
        <dc:format>image/svg+xml</dc:format>
        <dc:type
           rdf:resource="http://purl.org/dc/dcmitype/StillImage" />
        <dc:title></dc:title>
      </cc:Work>
    </rdf:RDF>
  </metadata>
  <g
     inkscape:label="Layer 1"
     inkscape:groupmode="layer"
     id="layer1"
     transform="translate(-108.94951,152.9745)">
    <path
       d="m 323.91241,-44.780102 c 0,58.8596 -47.7137,106.5734 -106.5712,106.5734 -58.8586,0 -106.5714,-47.7138 -106.5714,-106.5734 0,-58.859398 47.7128,-106.573198 106.5714,-106.573198 58.8575,0 106.5712,47.7138 106.5712,106.573198"
       style="fill:#ffffff;fill-opacity:1;fill-rule:nonzero;stroke:none"
       id="path102166"
       inkscape:connector-curvature="0" />
    <path
       inkscape:connector-curvature="0"
       style="fill:#8ac37a;fill-opacity:1;fill-rule:nonzero;stroke:none"
       d="m 217.14251,-145.0677 c -55.3856,0 -100.2875,44.8999 -100.2875,100.288398 0,55.3867 44.9019,100.2856 100.2875,100.2856 55.3866,0 100.2885,-44.8989 100.2885,-100.2856 0,-55.388498 -44.9019,-100.288398 -100.2885,-100.288398 z m 0.8613,9.8499 2.9227,0.1654 c 0,0 -0.6217,10.9037 -0.6664,11.7044 0.7601,0.045 6.8451,0.391 6.8451,0.391 l -0.1673,2.8828 -9.763,-0.5553 0.8048,-14.1567 0.024,-0.4316 z m -5.4952,0.219 0.9943,14.5763 -2.9181,0.1996 -0.9942,-14.5781 2.4866,-0.1691 0.4314,-0.029 z m -8.6589,0.7004 1.764,8.2561 c 0.4508,2.1087 0.2494,3.8417 -0.5961,5.1476 -0.7532,1.1615 -1.9837,1.932 -3.6581,2.2888 -1.6114,0.3451 -3.006,0.1458 -4.1415,-0.5896 -1.3165,-0.854 -2.2164,-2.3755 -2.6741,-4.5201 l -1.7583,-8.221 2.8654,-0.6098 1.7418,8.1599 c 0.4925,2.3065 1.6352,3.2858 3.3921,2.9116 1.1517,-0.2532 2.6114,-0.9338 1.9764,-3.916 l -1.775,-8.2958 2.4394,-0.522 0.424,-0.09 z m 29.3336,0.4269 4.0658,0.9721 c 4.3434,1.0393 6.3036,4.3141 5.2381,8.7651 -1.2565,5.2375 -5.2832,6.2478 -8.632,5.448 l -4.0741,-0.9749 3.3025,-13.7898 0.1,-0.4205 z m 2.4145,3.8245 c -0.1764,0.734 -1.8907,7.8973 -2.0633,8.6312 0.4634,0.1116 1.2216,0.292 1.2216,0.292 1.2913,0.3102 2.3678,0.2078 3.2016,-0.3032 0.8949,-0.5515 1.5266,-1.5748 1.8786,-3.0436 0.1384,-0.572 0.2051,-1.1034 0.2051,-1.592 0,-0.765 -0.1661,-1.4242 -0.5035,-1.971 -0.511,-0.8318 -1.4244,-1.4112 -2.7148,-1.7195 0,0 -0.7589,-0.1824 -1.2253,-0.2939 z m 13.3223,0.6228 2.7242,1.07 -5.3362,13.6006 -2.7241,-1.071 5.1782,-13.1977 0.1579,-0.4019 z m -63.9701,0.7096 c 0.4298,0.017 0.8381,0.1018 1.2169,0.2541 0.9114,0.3665 1.6318,1.1236 2.0837,2.1881 0.2025,0.477 0.303,0.9486 0.303,1.4072 0,0.5566 -0.3374,1.0618 -0.6291,1.5718 1.1508,0.062 2.4833,0.6307 3.1803,2.2731 0.3122,0.7319 0.4676,1.4309 0.4676,2.0883 0,0.5012 -0.091,0.9812 -0.2726,1.4349 -0.4693,1.1634 -1.5146,2.099 -3.1047,2.7749 l -5.423,2.309 -5.7233,-13.4452 5.6014,-2.3831 c 0.8059,-0.3429 1.5833,-0.5016 2.2998,-0.4731 z m 72.1061,2.6169 2.4089,1.3739 c 0,0 0.3974,10.1114 0.3974,10.1125 0,0 0,0.384 0.015,0.6486 0.3199,-0.5711 0.7983,-1.4175 0.7983,-1.4175 l 3.7248,-6.5364 2.4883,1.4221 -7.2369,12.6949 -2.2832,-1.3056 -0.5054,-10.4348 c 0,0 0,-0.2453 -0.015,-0.413 -0.2966,0.5283 -0.7891,1.4017 -0.7891,1.4017 l -3.7422,6.5687 -2.4949,-1.4211 7.0235,-12.3189 0.2144,-0.3751 z m -72.6438,0.2115 c -0.2108,0.015 -0.4437,0.073 -0.6996,0.1811 0,0 -2.3797,1.0142 -2.9993,1.2779 0.2249,0.5284 0.8284,1.9453 1.0533,2.4737 0.8406,-0.3578 2.9976,-1.2753 2.9976,-1.2753 0.7699,-0.3286 0.9656,-0.8072 0.9656,-1.2076 0,-0.2365 -0.067,-0.4455 -0.125,-0.5803 -0.2267,-0.532 -0.554,-0.8189 -0.9896,-0.8649 -0.065,0 -0.1325,-0.015 -0.2033,0 z m 2.3266,4.9278 c -0.2712,0.021 -0.5632,0.097 -0.8685,0.2255 0,0 -2.412,1.028 -3.0345,1.2935 0.2482,0.5837 1.197,2.8103 1.4451,3.3939 0.8396,-0.3568 2.9809,-1.2677 2.9809,-1.2677 0.6855,-0.2918 1.1219,-0.6588 1.2945,-1.0912 l -0.122,-1.4156 -0.9509,-1.0339 c -0.223,-0.089 -0.4735,-0.1251 -0.7448,-0.1042 z m -21.6033,2.1779 9.1504,11.3948 -2.0568,1.6485 -9.8888,-3.3662 c 0,0 -0.231,-0.083 -0.3899,-0.1414 0.2006,0.2463 1.0164,1.2484 1.0164,1.2484 l 4.7328,5.897 -2.2352,1.7972 -9.1495,-11.3948 2.1649,-1.7372 c 0,0 9.5487,3.3486 9.5496,3.3486 0,0 0.3599,0.1355 0.6062,0.231 -0.2869,-0.3529 -1.0266,-1.2622 -1.0266,-1.2622 l -4.7087,-5.8665 1.8979,-1.5256 0.3373,-0.2716 z m 107.6869,4.0223 c 1.3246,0.031 2.578,0.5277 3.6545,1.4524 1.749,1.497 2.4263,3.317 2.0161,5.4083 l -0.082,0.4075 -2.9348,-0.4574 0.061,-0.4242 c 0.1851,-1.2487 -0.058,-1.9333 -0.9684,-2.7119 -0.6428,-0.5556 -1.3524,-0.8074 -2.1067,-0.7503 -1.0984,0.083 -2.2628,0.8107 -3.3689,2.1002 -1.1074,1.2915 -1.6508,2.5533 -1.5653,3.6499 0.06,0.7533 0.414,1.4163 1.0598,1.97 0.6515,0.5595 1.3093,0.8173 1.958,0.7678 0.666,-0.051 1.1505,-0.4136 1.5227,-0.7761 -0.4489,-0.3869 -1.6549,-1.423 -1.6549,-1.423 l 1.8545,-2.1631 3.9511,3.392 -1.3213,1.5339 c -1.209,1.4098 -2.6526,2.2178 -4.1738,2.334 -1.4204,0.1087 -2.8179,-0.3913 -4.0445,-1.4432 -1.2322,-1.0569 -1.946,-2.4274 -2.0631,-3.9622 -0.1459,-1.9091 0.6428,-3.9737 2.2221,-5.812 1.5784,-1.8393 3.501,-2.9334 5.4119,-3.0779 0.1919,-0.015 0.3828,-0.019 0.572,-0.015 z m -55.6772,4.6458 c 36.0812,0 65.3304,29.249898 65.3304,65.333098 0,36.0811996 -29.2492,65.3294 -65.3304,65.3294 -36.0841,0 -65.3341,-29.2482004 -65.3341,-65.3294 0,-36.0832 29.25,-65.333098 65.3341,-65.333098 z m -65.0965,2.6169 2.1733,1.871 c 0,0 -3.939,4.5737 -4.4334,5.1486 0.4255,0.3675 1.4915,1.285698 1.9191,1.653198 0.4469,-0.5217 2.5742,-2.992098 2.5742,-2.992098 l 2.1733,1.872098 c 0,0 -2.1271,2.4714 -2.5751,2.9901 0.4721,0.4072 2.1602,1.8622 2.6333,2.2684 0.4974,-0.5778 4.6248,-5.372098 4.6248,-5.372098 l 2.1751,1.872098 -6.5364,7.5888 -11.0743,-9.533998 6.0633,-7.0391 0.2828,-0.327 z m 135.6429,9.809298 c 1.9712,-0.015 3.7252,0.8711 4.9037,2.6102 1.3089,1.9343 1.4829,3.8123 0.523,5.7464 l -0.1857,0.3715 -2.7378,-1.2142 0.1736,-0.3944 c 0.51,-1.1722 0.4605,-1.8957 -0.1967,-2.8682 -0.4761,-0.6991 -1.0889,-1.1261 -1.8286,-1.2687 -1.0743,-0.2055 -2.389,0.1907 -3.7977,1.1486 -2.4162,1.6366 -3.1386,3.5629 -1.982,5.276 0.6806,1.0035 1.4734,1.3954 2.7387,1.3547 l 0.4435,-0.015 0.025,2.9034 -0.4075,0.028 c -2.1155,0.1458 -3.9691,-0.7857 -5.2188,-2.6279 -0.9134,-1.3477 -1.2389,-2.8525 -0.948,-4.3659 0.3606,-1.881 1.6653,-3.6664 3.6692,-5.0257 1.628,-1.1042 3.2921,-1.6514 4.8252,-1.6595 z m -145.3958,2.2222 2.4605,1.4766 c 0,0 -3.1029,5.1752 -3.4936,5.8268 0.4829,0.2899 1.6896,1.0112 2.1714,1.3 0.3529,-0.5885 2.0301,-3.3846 2.0301,-3.3846 l 2.4579,1.4757 c 0,0 -1.6744,2.797 -2.0282,3.3855 0.5361,0.3199 2.4456,1.4662 2.9807,1.7861 0.3917,-0.6545 3.6453,-6.0809 3.6453,-6.0809 l 2.4596,1.4766 -5.1512,8.5914 -12.5325,-7.5141 4.7772,-7.9677 0.2228,-0.3714 z m 152.3101,10.8738 c 2.5558,-0.034 4.6633,1.2152 5.6939,3.5676 0.6553,1.4959 0.7017,3.0453 0.1414,4.4851 -0.6991,1.782 -2.3076,3.2994 -4.5258,4.2689 -2.2135,0.9706 -4.4145,1.1212 -6.1965,0.4242 -1.4407,-0.5644 -2.5473,-1.6531 -3.2017,-3.1491 -0.6515,-1.4873 -0.6991,-3.0326 -0.1369,-4.4676 0.6952,-1.783 2.3038,-3.2985 4.522,-4.2689 1.288,-0.5636 2.5427,-0.8444 3.7044,-0.8602 z m 0.1904,2.9282 c -0.7896,0 -1.6994,0.211 -2.7018,0.6495 -2.0758,0.9113 -3.1759,2.1789 -3.1759,3.5935 0,0.4063 0.091,0.8264 0.2764,1.252 0.8386,1.9196 2.858,2.3511 5.5348,1.1799 1.5522,-0.6796 2.5888,-1.579 2.9883,-2.6047 0.2782,-0.7097 0.2433,-1.4701 -0.1,-2.2574 -0.5229,-1.1931 -1.5058,-1.8064 -2.822,-1.8128 z m -157.7851,1.0302 c 0.5979,-0.015 1.2309,0.1 1.885,0.3456 1.9693,0.7358 3.0253,2.1742 3.0253,4.0831 0,0.027 0,0.054 0,0.08 0.8543,-0.089 6.4329,-0.6828 6.4329,-0.6828 l -1.1725,3.1325 c 0,0 -5.5638,0.598 -6.0494,0.6513 -0.1325,0.3531 -0.6403,1.71 -0.8409,2.2501 0.6864,0.2569 5.0949,1.9061 5.0949,1.9061 l -1.0127,2.7047 -13.6873,-5.12 2.2657,-6.0522 c 0.7918,-2.1023 2.2703,-3.2629 4.0638,-3.2988 z m 0.1544,2.9789 c -0.7085,0 -1.2678,0.4546 -1.5856,1.3038 0,0 -1.0116,2.703 -1.252,3.3478 0.5866,0.2201 2.7407,1.0255 3.3274,1.2456 0.2423,-0.6458 1.2529,-3.3478 1.2529,-3.3478 0.1042,-0.2811 0.1811,-0.5953 0.1811,-0.9046 0,-0.5874 -0.275,-1.1622 -1.1689,-1.4988 -0.2658,-0.1 -0.5187,-0.1473 -0.7549,-0.1458 z m 167.173,7.9568 0.6255,2.8588 -8.1544,1.789 c -1.3088,0.2859 -2.1948,0.7851 -2.6407,1.4802 -0.3317,0.5216 -0.4146,1.1683 -0.2468,1.9266 0.1813,0.827 0.5249,1.394 1.0561,1.7334 0.6544,0.4207 1.6205,0.4934 2.8654,0.22 l 8.2912,-1.8176 0.6246,2.8598 -8.2468,1.8093 c -4.0206,0.8802 -6.6684,-0.6165 -7.4605,-4.2164 -0.7629,-3.4727 1.0853,-5.9677 5.071,-6.8422 l 7.7894,-1.7085 0.426,-0.092 z m -172.3595,4.8353 1.1227,2.7499 -0.3955,0.1654 c -1.1653,0.4877 -1.627,1.0507 -1.8257,2.2286 -0.1429,0.8398 0.015,1.5771 0.4471,2.1946 0.6389,0.8969 1.8609,1.5205 3.5372,1.8046 2.8794,0.4867 4.7294,-0.4136 5.0756,-2.4681 0.04,-0.2297 0.06,-0.4502 0.06,-0.6588 0,-0.5556 -0.1369,-1.0296 -0.4121,-1.4155 -0.3859,-0.5421 -0.9475,-0.7737 -1.4516,-0.9064 -0.1,0.5865 -0.3651,2.1556 -0.3651,2.1556 l -2.809,-0.4739 0.8669,-5.132 1.9958,0.3372 c 1.8334,0.3093 3.2683,1.13 4.1515,2.3729 0.8251,1.1615 1.1197,2.6159 0.851,4.2088 -0.2704,1.5988 -1.0747,2.9177 -2.3312,3.8097 -1.559,1.1082 -3.7363,1.4974 -6.1253,1.0941 -2.3889,-0.4033 -4.3167,-1.4846 -5.4258,-3.0456 -0.6892,-0.9704 -1.0432,-2.092 -1.0432,-3.2894 0,-0.352 0.031,-0.711 0.092,-1.0757 0.3849,-2.2725 1.5931,-3.7924 3.5953,-4.5137 l 0.3899,-0.1429 z m 175.5261,12.5814 0.062,2.772 -8.4796,5.5302 c 0,0 -0.3258,0.1994 -0.5517,0.3409 0.3404,-0.015 1.6226,-0.048 1.6226,-0.048 l 7.5233,-0.1515 0.058,2.8645 -14.6049,0.2984 -0.055,-2.6289 8.6986,-5.7852 c 0,0 0.2108,-0.1339 0.3485,-0.2217 -0.3404,0.015 -1.6106,0.043 -1.6106,0.043 l -7.5566,0.1552 -0.06,-2.8691 14.1726,-0.291 0.4314,-0.015 z m -167.8023,6.263 c 1.0763,-0.016 1.9987,0.8772 2.0181,1.9513 0.015,1.0743 -0.8781,1.9986 -1.9524,2.02 -1.0859,0.015 -2.0182,-0.882 -2.0365,-1.9552 -0.016,-1.0743 0.8869,-1.9978 1.9708,-2.0161 z m -1.7482,5.7602 c 0.9232,0.031 1.7283,0.3116 2.4015,0.8372 1.0577,0.8308 1.7143,2.2194 1.946,4.1266 0.2453,2.0108 -0.3833,4.0032 -1.7252,5.4682 l -0.2725,0.2995 -2.2648,-1.8231 0.2902,-0.3401 c 0.8085,-0.9482 1.2243,-2.2568 1.0856,-3.4104 -0.2569,-2.1224 -1.1246,-2.2957 -1.8488,-2.2113 -0.6913,0.085 -1.0957,0.5591 -1.5137,3.0002 -0.4856,2.8651 -1.0172,4.7656 -3.8715,5.1127 -1.1024,0.1354 -2.1276,-0.1414 -2.9652,-0.7957 -1.0151,-0.7949 -1.6784,-2.0807 -1.8655,-3.6183 -0.221,-1.8372 0.2338,-3.4726 1.3943,-5.0045 l 0.2624,-0.3493 2.334,1.8 -0.2762,0.3428 c -0.7155,0.895 -0.9715,1.8253 -0.8269,3.0169 0.083,0.6952 0.3118,1.2088 0.6578,1.4794 l 0.8315,0.2181 c 0.5711,-0.072 0.9505,-0.2999 1.3908,-2.8885 0.4499,-2.5538 1.0917,-4.8746 3.9557,-5.2189 0.1624,-0.019 0.3213,-0.033 0.4776,-0.04 0.1369,0 0.271,0 0.4029,0 z m 160.5626,3.6453 c 0.5189,0.015 1.0578,0.062 1.6124,0.1561 2.3861,0.4023 4.3148,1.4845 5.424,3.0464 0.893,1.2497 1.2232,2.7671 0.9507,4.3669 -0.3907,2.3036 -1.568,3.7807 -3.5952,4.5146 l -0.3909,0.14 -1.1347,-2.773 0.3954,-0.1645 c 1.177,-0.4935 1.6429,-1.0516 1.8425,-2.2102 0.1414,-0.8309 -0.015,-1.5644 -0.4425,-2.175 -0.637,-0.8922 -1.8631,-1.5179 -3.5482,-1.802 -2.8757,-0.4848 -4.7259,0.4087 -5.0719,2.4506 -0.2027,1.1944 0.1,2.0255 1.0423,2.8709 l 0.3316,0.2966 -1.9939,2.1123 -0.3096,-0.2606 c -1.6347,-1.3564 -2.3312,-3.311 -1.958,-5.509 0.5437,-3.2229 3.2141,-5.1362 6.846,-5.0607 z m -156.5227,8.9231 c 0.9135,-0.034 1.7872,0.5849 2.017,1.4968 0.2647,1.0384 -0.3955,2.1424 -1.4387,2.41 -1.0539,0.2635 -2.1655,-0.3939 -2.4282,-1.4351 -0.2629,-1.0423 0.4033,-2.1487 1.4562,-2.4163 l 0,0 c 0.131,-0.033 0.2621,-0.051 0.3926,-0.055 z m 148.0329,4.1959 13.9433,4.3623 -0.8658,2.7969 -13.9433,-4.3613 0.7364,-2.3839 0.1295,-0.414 z m -148.1864,1.606 c 2.1761,0.089 3.794,1.3517 4.6838,3.7246 1.2488,3.3284 -0.2272,6.0607 -4.0462,7.4956 l -7.8717,2.9530996 -1.0283,-2.7413996 7.8171,-2.9319 c 1.2477,-0.4665 2.0554,-1.0856 2.3986,-1.837 0.2569,-0.5633 0.2486,-1.2179 -0.024,-1.946 -0.4197,-1.1063 -1.2986,-2.4473 -4.1646,-1.374 l -7.9436,2.9762 -1.0265,-2.7378 7.9085,-2.9679 c 1.2038,-0.4511 2.3078,-0.6539 3.2969,-0.6135 z m 146.1406,4.7818 13.2717,6.1214 -1.2327,2.6593996 c 0,0 -9.9108,-4.5785996 -10.6419,-4.9119996 -0.317,0.6892 -2.87,6.2212996 -2.87,6.2212996 l -2.6251,-1.2096 3.916,-8.4878996 0.182,-0.3926 z m -114.6762,32.6913 c 0,0 3.0818,1.8201 3.1556,2.1197 l -5.0839,8.5942 c -1.3971,2.3688 -1.1364,4.5112 0.6892,5.5903 1.8372,1.084 3.8398,0.3048 5.2244,-2.0337 0,0 5.1097,-8.6405 5.4063,-8.7171 0,0 3.0762,1.8202 3.1528,2.1169 l -5.0839,8.5961 c -1.4001,2.3714 -3.1931,3.8946 -5.1856,4.4085 -1.753,0.4517 -3.6578,0.1086 -5.5163,-0.986 -1.8131,-1.0742 -3.0128,-2.5805 -3.4715,-4.3557 -0.137,-0.5401 -0.2051,-1.0986 -0.2051,-1.6734 0,-1.5668 0.5102,-3.2459 1.5108,-4.9426 0,0 5.1076,-8.6405 5.4072,-8.7172 z m 85.0424,2.6889 c 1.5044,-0.037 2.9795,0.4776 4.3815,1.5967 0,0 -2.1307,2.9737 -2.4245,3.0289 -1.1654,-0.7571 -2.3367,-0.7779 -3.5807,-0.07 -0.8716,0.4926 -1.4434,1.2064 -1.6964,2.1188 -0.3578,1.2943 -0.036,2.9264 0.9101,4.5969 0.927,1.6405 2.1693,2.7438 3.4956,3.1111 0.9278,0.258 1.8344,0.137 2.6972,-0.35 1.2768,-0.7272 1.7665,-1.6816 2.0281,-3.7331 0,0 3.5041,0.067 3.7184,0.2698 0.1968,3.0647 -1.1064,5.4115 -3.8745,6.9762 -1.8722,1.0627 -3.8712,1.3445 -5.787,0.8142 -2.3163,-0.6399 -4.3412,-2.3899 -5.8518,-5.06 -1.4505,-2.5507 -1.8942,-5.2482 -1.2456,-7.5936 0.5458,-1.9807 1.8205,-3.5863 3.6868,-4.643 1.1852,-0.6714 2.3725,-1.034 3.5428,-1.0627 z m -62.7313,8.1249 c 0.7228,0 1.4732,0.1101 2.2251,0.3169 2.5412,0.6982 4.3969,2.1803 5.5885,4.827 0,0 -3.1519,1.7347 -3.4457,1.6504 -0.8251,-1.4825 -1.8723,-2.3536 -3.3024,-2.7443 -1.4087,-0.3879 -2.3886,-0.1176 -2.6233,0.7243 -0.2472,0.9094 0.2255,1.3768 2.8025,2.7767 2.0748,1.1266 5.5465,3.0084 4.4112,7.1435 -0.4429,1.6289 -1.2911,2.8121 -2.5215,3.5131 -1.5174,0.8658 -3.5447,0.9597 -6.0218,0.2791 -2.9358,-0.8037 -5.1744,-2.7119 -5.8851,-5.3685 0,0 3.0937,-1.5312 3.3866,-1.4313 0.7397,1.5551 1.9964,2.5852 3.7367,3.0603 1.206,0.3344 2.2197,0.3505 2.5863,0.048 0.3664,-0.3024 0.5714,-0.5429 0.6625,-0.9452 0.091,-0.4025 0.074,-0.3145 0.074,-0.4666 0,-0.6787 -0.608,-1.3089 -3.1675,-2.677 -2.2154,-1.2002 -4.3291,-2.6007 -4.3291,-5.2455 0,-0.4994 0.076,-1.0384 0.2374,-1.6319 0.3617,-1.3292 1.1688,-2.3803 2.3342,-3.0491 0.921,-0.5266 2.0471,-0.7902 3.2515,-0.7799 z m 44.5022,0.1645 c 2.3274,0.062 3.9748,1.3231 4.5693,3.6036 0.1027,0.3898 0.1525,0.7805 0.1525,1.1615 0,0.986 -0.4249,1.8708 -1.0589,2.6251 1.6724,0.3694 2.911,1.4896 3.3541,3.2007 0.1649,0.6342 0.2459,1.2398 0.2459,1.8176 0,0.9773 -0.234,1.8686 -0.7033,2.6704 -0.825,1.4058 -2.3484,2.4301 -4.4028,2.9614 0,0 -7.8631,2.0428 -8.124,1.8907 0,0 -4.4969,-17.3045 -4.3438,-17.5693 l 7.9392,-2.0633 c 0.6686,-0.1734 1.3032,-0.2706 1.8979,-0.2947 0.1611,0 0.3188,-0.015 0.4739,0 z m -22.992,2.7729 c 3.4185,0.06 5.6104,1.558 6.773,5.0007 0,0 -3.419,1.3506 -3.6914,1.2419 -0.6574,-1.3709 -1.4248,-2.228 -3.1989,-2.26 -2.4647,-0.039 -4.0292,2.0272 -4.0815,5.3915 -0.033,1.9225 0.4744,3.5221 1.4313,4.5111 0.6632,0.6873 1.5058,1.0415 2.4976,1.0561 2.0468,0.036 3.0745,-0.7238 3.5408,-2.2148 0,0 -2.8359,-0.045 -3.0501,-0.2652 0,0 0.052,-3.3488 0.2725,-3.563 0,0 6.4119,0.1027 6.6262,0.3234 l -0.036,2.3534 c -0.076,4.5055 -3.0259,7.3694 -7.5186,7.2998 -4.8808,-0.079 -7.971,-3.8363 -7.881,-9.5682 0.091,-5.5554 3.5112,-9.3804 8.3153,-9.3067 z m 22.4516,1.0359 c -0.2797,-0.015 -0.6221,0.027 -1.0442,0.1355 0,0 -3.8123,0.9924 -4.1903,1.0894 0.1265,0.5022 0.5895,2.3363 0.5895,2.82 0,0.064 -0.015,0.094 -0.033,0.1 0.037,-0.015 4.5516,-1.1828 4.5516,-1.1828 0,0 1.066,-0.3372 1.289,-0.7891 0.2229,-0.4527 0.085,-1.0857 0.085,-1.0857 -0.1384,-0.5351 -0.4095,-1.0474 -1.2483,-1.0865 z m 1.8415,6.2989 c -0.3046,-0.015 -0.6487,0.037 -1.0339,0.1369 0,0 -4.0146,1.046 -4.3938,1.1459 0.1414,0.5486 0.8835,3.454 0.8835,4.0203 0,0.054 -0.015,0.079 -0.025,0.082 0.028,0 4.5877,-1.1883 4.5877,-1.1883 1.209,-0.317 1.8314,-0.9807 1.8314,-1.9376 0,-0.2143 -0.033,-0.4459 -0.094,-0.6903 -0.2778,-1.0318 -0.8407,-1.5444 -1.7547,-1.569 z"
       id="path102168" />
    <path
       d="m 217.85611,6.1499976 c 0,0 -0.082,0.7165 -0.6458,0.6952 -0.5633,-0.021 -0.5283,-0.6952 -0.5283,-0.6952 0,0 -0.4102,-24.8122996 -0.4102,-41.8024996 0,-16.9912 0.4102,-35.5015 0.4102,-35.5015 0,0 0.1503,-0.7049 0.6224,-0.7049 0.4732,0 0.5517,0.7049 0.5517,0.7049 0,0 0.4111,18.5103 0.4111,35.5015 0,16.9902 -0.4111,41.8024996 -0.4111,41.8024996 m 46.3932,-36.6784996 c 1.0152,-0.4779 13.3922,-4.2902 10.5485,-11.6751 -1.9961,-5.1939 -5.8404,0.9568 -8.5202,-1.0451 -0.86,-0.64 -1.3941,-1.1499 2.3675,-4.8003 3.7687,-3.6619 4.9109,-6.2603 5.2899,-8.5105 0.3694,-2.2513 0.3665,-3.9684 -1.1799,-4.8361 -1.5475,-0.8667 -3.5892,1.4233 -4.203,-0.9521 -0.3761,-1.275 0.1087,-1.9934 0.1146,-4.2709 0.015,-2.4916 -2.5451,-8.7199 -8.4884,-6.6179 -3.8441,1.3563 -1.8041,7.9831 -2.794,9.2367 -1.0181,1.2846 -1.881,-2.6448 -4.0411,-3.2634 -2.4888,-0.7078 -4.2291,1.5978 -4.2087,3.7356 0.021,2.1378 1.4115,6.1167 1.872,7.6573 0.2579,1.2236 0.9222,4.5492 0.5053,5.5264 -0.6342,1.4736 -1.1741,0.9919 -2.5945,-0.8803 -1.2536,-1.6551 -0.5934,-0.9627 -2.8058,-3.6222 -2.7526,-3.3924 -4.4259,1.3108 -4.6257,4.4559 -0.1997,3.1443 2.1891,14.0894 2.1485,15.5417 -0.1648,6.5628 -3.8162,-0.9626 -3.9324,-1.1411 -2.3958,-3.6484 -7.003,-1.9401 -5.5623,1.9779 2.6265,7.1377 4.9805,13.3009 2.4975,19.4236 -0.3345,0.8183 -0.7804,2.2484 -1.3912,3.6688 20.2284,-18.8342 25.7896,-44.9196 25.7954,-44.9487 0.077,-0.2705 0.5575,-0.5284 0.8047,-0.447 0.252,0.079 0.3723,0.5827 0.2958,0.8561 -0.015,0.043 -6.6094,38.7844 -41.8724,58.5657996 -0.7814,0.4257 -0.8725,-0.033 -1.0218,-0.7339 0.1676,-6.1401 0.4227,-10.311 2.7002,-11.6635 18.9921,-11.2756996 12.823,-16.4617996 8.8838,-17.2314996 -3.9383,-0.7689 -6.1866,-7.2105 -0.7562,-10.0106 9.5614,-5.3769 14.4508,-24.5767 2.576,-20.3795 -1.0859,0.091 -8.8926,4.1564 -2.007,-7.6188 6.5152,-11.7818 4.5074,-22.2711 -2.2483,-17.7036 -1.7733,1.1954 -6.7887,6.5065 -5.7853,-1.1742 1.7936,-11.6576 -1.0945,-15.814 -4.5141,-16.5771 0,0 -0.3578,-0.06 -0.6448,-0.092 l -0.3102,0.015 0,-0.034 c -0.2036,-0.018 -0.9598,0.111592 -0.9598,0.111592 -3.4225,0.7631 -6.3059,4.9195 -4.5152,16.5772 1.0015,7.6806 -4.0119,2.3696 -5.7823,1.1741 -6.7577,-4.5674 -8.7616,5.9219 -2.2463,17.7037 6.8808,11.7751 -0.926,7.7098 -2.0119,7.6187 -11.8739,-4.1971 -6.9855,15.0026 2.581,20.3796 5.4303,2.8 3.179,9.2416 -0.7583,10.0105 -3.9372,0.7697 -10.1102,5.9558 8.881,17.2314996 2.2813,1.3564 2.5597,5.5535 2.7253,11.7139 -0.154,0.6805 -0.2704,1.1004 -1.0393,0.6835 -35.2639,-19.7813996 -41.8596,-58.5221996 -41.8704,-58.5657996 -0.076,-0.2734 0.1161,-0.7766 0.3675,-0.8561 0.2472,-0.082 0.6409,0.3559 0.7155,0.6254 0.015,0.028 5.5855,25.9361 25.814,44.7703 -0.6138,-1.4204 -1.0588,-2.8505 -1.3933,-3.6688 -2.483,-6.1227 -0.128,-12.2859 2.4975,-19.4236 1.4398,-3.9179 -3.1665,-5.6263 -5.5602,-1.9779 -0.1191,0.1785 -3.7687,7.7039 -3.9354,1.1411 -0.042,-1.4523 2.3472,-12.3973 2.1476,-15.5416 -0.1989,-3.1452 -1.8703,-7.8484 -4.6218,-4.456 -2.2135,2.6595 -1.5543,1.9671 -2.8088,3.6222 -1.4175,1.8722 -1.9594,2.354 -2.5935,0.8804 -0.4149,-0.9773 0.2453,-4.3029 0.505,-5.5264 0.4607,-1.5406 1.852,-5.5196 1.8722,-7.6573 0.021,-2.1379 -1.7199,-4.4435 -4.2067,-3.7358 -2.1602,0.6187 -3.025,4.5481 -4.0429,3.2635 -0.988,-1.2536 1.0509,-7.8804 -2.7943,-9.2367 -5.9432,-2.102 -8.498,4.1263 -8.4883,6.618 0,2.2774 0.4916,2.9959 0.1131,4.2708 -0.6128,2.3754 -2.6546,0.085 -4.2021,0.9521 -1.5464,0.8677 -1.5503,2.5848 -1.1799,4.8361 0.379,2.2502 1.5222,4.8486 5.2879,8.5105 3.7657,3.6504 3.2294,4.1603 2.3695,4.8001 -2.6788,2.0022 -6.522,-4.1486 -8.5202,1.0453 -2.8437,7.3849 9.5334,11.1972 10.5485,11.6751 2.6517,1.2682 4.1089,4.1621 0.4877,3.311 -1.4591,-0.3403 -3.6881,-1.403 -5.4333,0.5399 -4.6122,5.1424 7.4091,14.1048 15.3924,15.758 7.983,1.6519996 15.1276,4.6981996 18.14,6.0720996 2.9745,1.3497 15.6637,10.0522 16.546,13.5804 0.224,1.0393 0.7689,1.8052004 1.9914,1.8052004 1.2206,0 1.7462,-0.6815004 1.9721,-1.7384004 0.8076,-3.4506 13.5473,-12.2936 16.5296,-13.6472 3.0114,-1.3739 10.1549,-4.4201 18.138,-6.0720996 7.9832,-1.6532 20.0045,-10.6156 15.3943,-15.758 -1.7461,-1.9429 -3.974,-0.8802 -5.4332,-0.5399 -3.6213,0.8511 -2.166,-2.0428 0.4876,-3.311"
       style="fill:#8ac37a;fill-opacity:1;fill-rule:nonzero;stroke:none"
       id="path102170"
       inkscape:connector-curvature="0" />
    <path
       d="m 217.14581,59.342098 c -57.5051,0 -104.1213,-46.6191 -104.1213,-104.1222 0,-57.502198 46.6162,-104.117498 104.1213,-104.117498 57.5002,0 104.1165,46.6153 104.1165,104.117498 0,57.5031 -46.6163,104.1222 -104.1165,104.1222 m 0,-212.316598 c -59.7553,0 -108.1963,48.438 -108.1963,108.194398 0,59.7573 48.441,108.1933 108.1963,108.1933 59.7515,0 108.1904,-48.436 108.1904,-108.1933 0,-59.756398 -48.4389,-108.194398 -108.1904,-108.194398"
       style="fill:#5c6c43;fill-opacity:1;fill-rule:nonzero;stroke:none"
       id="path102172"
       inkscape:connector-curvature="0" />
    <path
       d="m 299.94271,36.511098 0.9394,0 c 0.959,0 1.2711,-0.2764 1.2711,-0.8455 0,-0.4925 -0.2385,-0.7688 -1.1392,-0.7688 l -1.0713,0 z m 0,2.8823 -0.7921,0 0,-5.1424 1.9691,0 c 1.2264,0 1.8285,0.4577 1.8285,1.468 0,0.921 -0.5788,1.3205 -1.3477,1.4145 l 1.4679,2.2599 -0.8658,0 -1.3709,-2.2367 -0.889,0 z m 0.951,-6.3106 c -2.0689,0 -3.6658,1.5967 -3.6658,3.7279 0,2.1717 1.5969,3.7442 3.6658,3.7442 2.0428,0 3.6388,-1.5725 3.6388,-3.7442 0,-2.1312 -1.596,-3.7279 -3.6388,-3.7279 m 0,-0.7214 c 2.4268,0 4.5045,1.8896 4.5045,4.4493 0,2.5827 -2.0777,4.4665 -4.5045,4.4665 -2.4538,0 -4.5316,-1.8838 -4.5316,-4.4665 0,-2.5597 2.0778,-4.4493 4.5316,-4.4493"
       style="fill:#7e8083;fill-opacity:1;fill-rule:nonzero;stroke:none"
       id="path102174"
       inkscape:connector-curvature="0" />
  </g>
</svg>
