<?xml version="1.0" encoding="UTF-8" standalone="no"?>
<!-- Created with Inkscape (http://www.inkscape.org/) -->

<svg
   xmlns:dc="http://purl.org/dc/elements/1.1/"
   xmlns:cc="http://creativecommons.org/ns#"
   xmlns:rdf="http://www.w3.org/1999/02/22-rdf-syntax-ns#"
   xmlns:svg="http://www.w3.org/2000/svg"
   xmlns="http://www.w3.org/2000/svg"
   xmlns:sodipodi="http://sodipodi.sourceforge.net/DTD/sodipodi-0.dtd"
   xmlns:inkscape="http://www.inkscape.org/namespaces/inkscape"
   width="11.689832mm"
   height="9.0311108mm"
   viewBox="0 0 41.420664 31.999999"
   id="svg35329"
   version="1.1"
   inkscape:version="0.91 r13725"
   sodipodi:docname="wall.svg">
  <defs
     id="defs35331" />
  <sodipodi:namedview
     id="base"
     pagecolor="#ffffff"
     bordercolor="#666666"
     borderopacity="1.0"
     inkscape:pageopacity="0.0"
     inkscape:pageshadow="2"
     inkscape:zoom="0.35"
     inkscape:cx="469.99605"
     inkscape:cy="-238.28571"
     inkscape:document-units="px"
     inkscape:current-layer="layer1"
     showgrid="false"
     fit-margin-top="0"
     fit-margin-left="0"
     fit-margin-right="0"
     fit-margin-bottom="0"
     inkscape:window-width="1680"
     inkscape:window-height="1007"
     inkscape:window-x="1280"
     inkscape:window-y="17"
     inkscape:window-maximized="1" />
  <metadata
     id="metadata35334">
    <rdf:RDF>
      <cc:Work
         rdf:about="">
        <dc:format>image/svg+xml</dc:format>
        <dc:type
           rdf:resource="http://purl.org/dc/dcmitype/StillImage" />
        <dc:title></dc:title>
      </cc:Work>
    </rdf:RDF>
  </metadata>
  <g
     inkscape:label="Layer 1"
     inkscape:groupmode="layer"
     id="layer1"
     transform="translate(94.99605,-262.07649)">
    <g
       id="g31253"
       transform="matrix(0.3105226,0,0,0.3105226,-360.18371,356.76317)">
      <path
         inkscape:connector-curvature="0"
         id="path6775"
         style="fill:#5c6c43;fill-opacity:1;fill-rule:nonzero;stroke:none"
         d="m 925.1458,-201.87477 -71.14142,-41.07355 0,-3.4228 62.40738,-32.73365 70.98279,37.86785 -4.1328,2.38613 -58.11595,33.55322 z" />
      <path
         inkscape:connector-curvature="0"
         id="path6779"
         style="fill:#93c19a;fill-opacity:1;fill-rule:nonzero;stroke:none"
         d="m 925.1458,-205.29757 -71.14142,-41.07353 62.24877,-35.93935 71.1414,41.07353 z" />
      <path
         d="m 987.37279,-237.80157 -62.22699,35.92679 0,-3.42279 62.24875,-35.93935 z"
         style="fill:#5c6c43;fill-opacity:1;fill-rule:nonzero;stroke:none"
         id="path6789"
         inkscape:connector-curvature="0" />
      <path
         inkscape:connector-curvature="0"
         id="path6796"
         style="fill:#93c19a;fill-opacity:1;fill-rule:nonzero;stroke:none"
         d="m 950.36916,-281.3978 -40.75349,-23.52905 -4.26491,2.46235 1.83907,39.52171 6.58367,3.78774 z" />
      <path
         inkscape:connector-curvature="0"
         id="path6800"
         style="fill:#5c6c43;fill-opacity:1;fill-rule:nonzero;stroke:none"
         d="m 945.15658,-279.48266 -39.80574,-22.98185 0.003,40.1505 6.9485,4.01166 z" />
      <path
         inkscape:connector-curvature="0"
         id="path6804"
         style="fill:#f59088;fill-opacity:1;fill-rule:nonzero;stroke:none"
         d="m 911.51121,-219.56568 0.94775,0.54719 21.79842,-12.58531 0,-0.54718 6.63424,-3.83031 0.47392,0.2736 6.16042,-3.55673 0,-40.49183 -0.94784,-0.54719 -35.06691,20.24591 z" />
      <path
         id="path6806"
         style="fill:#5c6c43;fill-opacity:1;fill-rule:nonzero;stroke:none"
         d="m 908.19406,-221.48083 4.2649,2.46233 0,-40.49183 -4.2649,-2.46234 z"
         inkscape:connector-curvature="0" />
      <path
         d="m 927.14922,-249.93455 0.47381,0.2736 0,-18.60437 -0.47381,-0.27358 z"
         style="fill:#5c6c43;fill-opacity:1;fill-rule:nonzero;stroke:none"
         id="path6808"
         inkscape:connector-curvature="0" />
      <path
         d="m 914.82835,-248.29299 0.47387,0.27359 9.4775,-5.47189 -0.47381,-0.27356 z"
         style="fill:#93c19a;fill-opacity:1;fill-rule:nonzero;stroke:none"
         id="path6810"
         inkscape:connector-curvature="0" />
      <path
         id="path6812"
         style="fill:#93c19a;fill-opacity:1;fill-rule:nonzero;stroke:none"
         d="m 924.30591,-248.29299 0.47381,0.2736 2.84331,-1.64159 -0.47392,-0.27357 z"
         inkscape:connector-curvature="0" />
      <path
         id="path6814"
         style="fill:#5c6c43;fill-opacity:1;fill-rule:nonzero;stroke:none"
         d="m 936.15284,-241.45316 0.47392,0.2736 0,-5.47188 -0.47392,-0.27358 z"
         inkscape:connector-curvature="0" />
      <path
         d="m 940.89162,-235.98129 0.47392,0.27359 0,-8.20779 -0.47392,-0.2736 z"
         style="fill:#5c6c43;fill-opacity:1;fill-rule:nonzero;stroke:none"
         id="path6816"
         inkscape:connector-curvature="0" />
      <path
         inkscape:connector-curvature="0"
         id="path6820"
         style="fill:#cfe2ab;fill-opacity:1;fill-rule:nonzero;stroke:none"
         d="m 912.45897,-219.01849 21.79841,-12.5853 0,-8.2078 0,-5.47188 2.36938,-1.36795 0,5.47186 4.73878,-2.73594 0,8.20781 6.16042,-3.55673 0,-40.49183 -19.90293,11.49093 0,13.13249 0,5.47187 -2.8432,1.64156 0,-5.47188 -9.47759,5.47188 0,-13.13248 -2.84327,1.64155 0,13.13248 z" />
      <path
         style="fill:#93c19a;fill-opacity:1;fill-rule:nonzero;stroke:none"
         d="m 943.73492,-282.49218 -35.54086,20.51951 4.26498,2.46222 35.06671,-20.24581 z"
         id="path6822"
         inkscape:connector-curvature="0" />
      <path
         inkscape:connector-curvature="0"
         d="m 912.45897,-219.01849 21.79841,-12.5853 7.10816,-4.1039 9.00362,-5.19827 0,-40.49184 -22.74613,13.13248 -12.32079,7.11344 -2.84327,1.64155 0,13.13248 z"
         style="fill:#cfe2ab;fill-opacity:1;fill-rule:nonzero;stroke:none"
         id="path6826" />
    </g>
  </g>
</svg>
