<svg xmlns="http://www.w3.org/2000/svg" height="500" width="757.272" version="1.2" viewBox="0 0 757.27199 499.99999"><g stroke-miterlimit="10"><path d="M47.147 269.096l70.375 13.57v27.137l-70.375-13.339v-27.368z" fill="#92c19a"/><path d="M0 323.602v-27.138l46.917-27.368v27.138L0 323.602zm70.605 67.616V364.08l46.917-27.138v27.138l-46.917 27.138z" fill="#5c6c43"/><path d="M.23 323.373v27.138l188.127 108.782v-27.138L.23 323.373z" fill="#92c19a"/><path d="M117.522 500v-27.368l70.605-40.937v27.138L117.522 500zm-94.064-81.644v-27.138l46.917-27.138v27.138l-46.917 27.138z" fill="#5c6c43"/></g><path d="M231.528 443.863V342.44h65.315v2.76h-62.325v45.307h54.736v2.76h-54.736v50.596h-2.99zm68.995 0L344.91 342.21h2.53l44.157 101.653h-3.22l-15.87-36.337h-53.125l-15.87 36.337h-2.989zm45.767-97.283l-25.528 58.186h50.596L346.29 346.58zm61.405-4.14l39.098 49.217 39.097-49.217h3.68l-41.167 51.517 40.017 50.136h-3.68l-37.947-47.836-37.948 47.836h-3.68l40.018-50.136-41.397-51.517h3.91zm101.423 101.423V342.44h2.76v101.423h-2.76zm15.409 0l44.387-101.653h2.53L615.6 443.863h-3.22l-15.869-36.337h-53.126l-15.869 36.337h-2.99zm45.537-97.283l-25.528 58.186h50.596l-25.068-58.186zm63.246 1.38v95.903h-2.76V342.44h2.07l77.734 97.514V342.44h2.76v101.423h-3.45L633.31 347.96z" fill="#010101"/></svg>