<svg xmlns="http://www.w3.org/2000/svg" height="663.064" width="661.487" viewBox="0 0 620.14443 621.62293"><path d="M181.294 351.598l27.617 5.315v10.63l-27.529-5.456zm-18.412 21.259v10.63l76.715 44.292v-10.63zm52.168-65.513l27.618 5.315v10.63l-27.53-5.455zm-18.411 21.26v10.63l76.715 44.29v-10.629zm51.976-65.419l27.617 5.315v10.63l-27.529-5.455zm-18.412 21.26v10.63l76.715 44.291v-10.63zm52.167-65.551l27.616 5.315v10.63l-27.528-5.456zm-18.412 21.259v10.63l76.714 44.292v-10.63zm52.356-65.683l27.617 5.315v10.63l-27.528-5.455zm-18.412 21.26v10.63l76.715 44.29v-10.629zm52.165-65.59l27.617 5.316v10.63l-27.529-5.455zm-18.412 21.26v10.63l76.715 44.292v-10.63zm-73.646 255.119l27.617 5.315v10.63l-27.529-5.455zm-18.412 21.26v10.63l76.715 44.29V472.07zm52.168-65.514l27.618 5.315v10.63l-27.53-5.455zm-18.411 21.26v10.63l76.715 44.291v-10.63zm51.976-65.419l27.617 5.315v10.63l-27.53-5.455zm-18.412 21.26v10.63l76.715 44.291v-10.63zm52.166-65.551l27.617 5.315v10.63l-27.529-5.455zm-18.412 21.26v10.63l76.715 44.291v-10.63zm52.357-65.684l27.617 5.315v10.63l-27.529-5.455zm-18.412 21.259v10.63l76.715 44.292v-10.63zm52.164-65.588l27.618 5.315v10.63l-27.53-5.455zm-18.411 21.26v10.63l76.715 44.291v-10.63zM334.724 461.44l27.617 5.315v10.63l-27.529-5.455zm-18.412 21.26v10.63l76.715 44.291v-10.63zm52.168-65.514l27.618 5.315v10.63l-27.53-5.455zm-18.411 21.26v10.63l76.714 44.291v-10.63zm51.975-65.419l27.618 5.315v10.63l-27.53-5.455zm-18.411 21.26v10.63l76.715 44.292v-10.63zm52.166-65.551l27.617 5.315v10.63l-27.529-5.455zm-18.412 21.26v10.63l76.715 44.291v-10.63zm52.357-65.684l27.617 5.315v10.63l-27.529-5.455zm-18.412 21.26v10.63l76.715 44.291v-10.63zm52.164-65.589l27.618 5.315v10.63l-27.53-5.455zm-18.411 21.26v10.63l76.715 44.291v-10.63zm-380.317 35.263l27.617 5.315v10.63l-27.529-5.455zm-18.412 21.26v10.63l76.715 44.291v-10.63zm52.168-65.514l27.617 5.315v10.63l-27.528-5.455zm-18.412 21.26v10.63l76.715 44.292v-10.63zm51.976-65.418l27.618 5.315v10.63l-27.53-5.456zm-18.411 21.259v10.63l76.715 44.292v-10.63zm52.166-65.551l27.617 5.315v10.63l-27.529-5.455zm-18.412 21.26v10.63l76.715 44.291v-10.63zm52.357-65.684l27.617 5.315v10.63l-27.529-5.455zm-18.412 21.26v10.63l76.715 44.292v-10.63zM273.54 75.05l27.618 5.314v10.63l-27.53-5.455zm-18.411 21.26v10.63l76.715 44.29V140.6z" class="st0"/><path d="M193.566 401.166v-10.63l18.414-10.592v10.63zm-30.684-28.309v-10.63l18.412-10.63v10.63z" class="st3"/><path d="M175.157 411.834v-10.63l18.6-10.8v10.63zm36.823 31.89v-10.63l27.617-15.945v10.63zm15.343-86.811v-10.63l18.413-10.593v10.63zm-30.684-28.309v-10.63l18.411-10.63v10.63z" class="st3"/><path class="st3" d="M208.913 367.58v-10.63l18.6-10.8v10.63zm36.823 31.89v-10.63l27.618-15.945v10.63zm15.151-86.716v-10.63L279.3 291.53v10.63zm-30.684-28.309v-10.63l18.412-10.63v10.63z"/><path d="M242.477 323.421v-10.63l18.6-10.8v10.63zM279.3 355.31v-10.629l27.618-15.945v10.63zm15.342-86.848v-10.63l18.413-10.592v10.63zm-30.684-28.309v-10.63l18.411-10.63v10.63z" class="st3"/><path class="st3" d="M276.232 279.13V268.5l18.6-10.8v10.63zm36.823 31.89v-10.63l27.617-15.945v10.63zm15.532-86.982v-10.63L347 202.817v10.63zm-30.685-28.308V185.1l18.412-10.63v10.63z"/><path d="M310.177 234.706v-10.63l18.6-10.8v10.63zM347 266.596v-10.63l27.617-15.945v10.63zm15.34-86.886v-10.63l18.413-10.593v10.63zm-30.685-28.31v-10.63l18.412-10.63v10.63z" class="st3"/><path class="st3" d="M343.93 190.377v-10.63l18.6-10.8v10.63zm36.823 31.89v-10.63l27.617-15.945v10.63zm-110.472 233.82v-10.63l18.414-10.592v10.63zm-30.684-28.308v-10.63l18.412-10.63v10.63z"/><path class="st3" d="M251.872 466.755v-10.63l18.6-10.8v10.63zm36.823 31.89v-10.63l27.617-15.945v10.63zm15.343-86.811v-10.63l18.413-10.592v10.63zm-30.684-28.309v-10.63l18.411-10.63v10.63z"/><path d="M285.628 422.501v-10.63l18.6-10.8v10.63zm36.823 31.89v-10.63l27.617-15.945v10.63zm15.151-86.716v-10.63l18.413-10.592v10.63zm-30.684-28.309v-10.63l18.411-10.63v10.63z" class="st3"/><path class="st3" d="M319.192 378.342v-10.63l18.6-10.8v10.63zm36.823 31.89v-10.63l27.618-15.945v10.63zm15.341-86.848v-10.63l18.414-10.593v10.63zm-30.684-28.309v-10.63l18.412-10.63v10.63z"/><path d="M352.947 334.051v-10.63l18.6-10.8v10.63zm36.823 31.889v-10.63l27.617-15.944v10.63zm15.531-86.98v-10.63l18.414-10.592v10.63zm-30.684-28.31v-10.629l18.412-10.63v10.63z" class="st3"/><path class="st3" d="M386.892 289.627v-10.63l18.6-10.8v10.63zm36.823 31.89v-10.63l27.617-15.945v10.63zm15.339-86.887V224l18.413-10.591v10.63zm-30.684-28.308v-10.63l18.411-10.63v10.63z"/><path d="M420.644 245.298v-10.63l18.6-10.8v10.63zm36.823 31.89v-10.63l27.618-15.945v10.63zM346.996 511.009v-10.63l18.414-10.592v10.63zM316.312 482.7v-10.63l18.412-10.63v10.63z" class="st3"/><path d="M328.587 521.676v-10.63l18.6-10.8v10.63zm36.823 31.89v-10.63l27.617-15.945v10.63zm15.343-86.811v-10.63l18.413-10.592v10.63zm-30.684-28.309v-10.63l18.411-10.63v10.63z" class="st3"/><path class="st3" d="M362.343 477.423v-10.63l18.6-10.8v10.63zm36.823 31.889v-10.63l27.617-15.944v10.63zm15.151-86.716v-10.63l18.413-10.592v10.63zm-30.684-28.309v-10.63l18.411-10.63v10.63z"/><path d="M395.907 433.264v-10.63l18.6-10.8v10.63zm36.823 31.889v-10.63l27.618-15.944v10.63zm15.341-86.848v-10.63l18.414-10.592v10.63zm-30.684-28.309v-10.63l18.412-10.63v10.63z" class="st3"/><path class="st3" d="M429.662 388.972v-10.63l18.6-10.8v10.63zm36.823 31.89v-10.63l27.617-15.945v10.63zm15.531-86.981v-10.63l18.414-10.592v10.63zm-30.684-28.309v-10.63l18.412-10.63v10.63z"/><path d="M463.607 344.549v-10.63l18.6-10.8v10.63zm36.823 31.889v-10.63l27.617-15.944v10.63zm15.339-86.886v-10.63l18.413-10.592v10.63zm-30.684-28.309v-10.63l18.411-10.63v10.63z" class="st3"/><path class="st3" d="M497.36 300.22v-10.63l18.6-10.8v10.63zm36.822 31.89v-10.63l27.618-15.945v10.63zM117.04 346.075v-10.63l18.414-10.592v10.63zm-30.684-28.309v-10.63l18.412-10.63v10.63z"/><path class="st3" d="M98.63 356.742v-10.63l18.6-10.8v10.63zm36.824 31.89v-10.63l27.617-15.945v10.63zm15.343-86.811v-10.63L169.21 280.6v10.63zm-30.685-28.309v-10.63l18.412-10.63v10.63z"/><path d="M132.387 312.489v-10.63l18.6-10.8v10.63zm36.823 31.889v-10.63l27.617-15.944v10.63zm15.15-86.716v-10.63l18.414-10.592v10.63zm-30.683-28.309v-10.63l18.411-10.63v10.63z" class="st3"/><path class="st3" d="M165.951 268.33V257.7l18.6-10.8v10.63zm36.823 31.89v-10.63l27.618-15.945v10.63zm15.341-86.85v-10.629l18.414-10.592v10.63zm-30.684-28.308v-10.63l18.412-10.63v10.63z"/><path d="M199.706 224.038v-10.63l18.6-10.8v10.63zm36.823 31.89v-10.63l27.617-15.945v10.63zm15.531-86.981v-10.63l18.414-10.592v10.63zm-30.684-28.309v-10.63l18.412-10.63v10.63z" class="st3"/><path class="st3" d="M233.65 179.615v-10.63l18.6-10.8v10.63zm36.824 31.889v-10.63l27.617-15.944v10.63zm15.339-86.886v-10.63l18.413-10.592v10.63zM255.129 96.31V85.68l18.411-10.63v10.63z"/><path d="M267.403 135.286v-10.63l18.6-10.8v10.63zm36.823 31.889v-10.63l27.618-15.944v10.63z" class="st3"/></svg>