<?xml version="1.0" encoding="UTF-8" standalone="no"?>
<svg
   xmlns:dc="http://purl.org/dc/elements/1.1/"
   xmlns:cc="http://creativecommons.org/ns#"
   xmlns:rdf="http://www.w3.org/1999/02/22-rdf-syntax-ns#"
   xmlns:svg="http://www.w3.org/2000/svg"
   xmlns="http://www.w3.org/2000/svg"
   height="500"
   width="757.27197"
   version="1.2"
   id="Layer_1"
   x="0px"
   y="0px"
   viewBox="0 0 757.27199 499.99999"
   xml:space="preserve"><metadata
     id="metadata5984"><rdf:RDF><cc:Work
         rdf:about=""><dc:format>image/svg+xml</dc:format><dc:type
           rdf:resource="http://purl.org/dc/dcmitype/StillImage" /><dc:title></dc:title></cc:Work></rdf:RDF></metadata><defs
     id="defs5982" /><g
     transform="matrix(2.2998372,0,0,2.2998372,-37.71733,245.86799)"
     id="faxian"
     style="stroke:none"><path
       id="path4080"
       stroke-miterlimit="10"
       d="m 36.9,10.1 30.6,5.9 0,11.8 -30.6,-5.8 0,-11.9 z"
       style="fill:#92c19a;stroke:none;stroke-miterlimit:10" /><path
       id="path4078"
       stroke-miterlimit="10"
       d="m 16.4,33.8 0,-11.8 20.4,-11.9 0,11.8 -20.4,11.9 z"
       style="fill:#5c6c43;stroke:none;stroke-miterlimit:10" /><path
       id="path4110"
       stroke-miterlimit="10"
       d="m 47.1,63.2 0,-11.8 20.4,-11.8 0,11.8 -20.4,11.8 z"
       style="fill:#5c6c43;stroke:none;stroke-miterlimit:10" /><path
       id="path4076"
       stroke-miterlimit="10"
       d="m 16.5,33.7 0,11.8 81.8,47.3 0,-11.8 -81.8,-47.3 z"
       style="fill:#92c19a;stroke:none;stroke-miterlimit:10" /><path
       id="path4106"
       stroke-miterlimit="10"
       d="m 67.5,110.5 0,-11.9 30.7,-17.8 0,11.8 -30.7,17.9 z"
       style="fill:#5c6c43;stroke:none;stroke-miterlimit:10" /><path
       id="path4108"
       stroke-miterlimit="10"
       d="M 26.6,75 26.6,63.2 47,51.4 47,63.2 26.6,75 Z"
       style="fill:#5c6c43;stroke:none;stroke-miterlimit:10" /></g><g
     transform="matrix(2.2998372,0,0,2.2998372,8.2137316,284.02455)"
     id="text"><path
       style="fill:#010101"
       d="m 97.1,69.5 0,-44.1 28.4,0 0,1.2 -27.1,0 0,19.7 23.8,0 0,1.2 -23.8,0 0,22 -1.3,0 z"
       id="path5964" /><path
       style="fill:#010101"
       d="m 127.1,69.5 19.3,-44.2 1.1,0 19.2,44.2 -1.4,0 -6.9,-15.8 -23.1,0 -6.9,15.8 -1.3,0 z m 19.9,-42.3 -11.1,25.3 22,0 L 147,27.2 Z"
       id="path5966" /><path
       style="fill:#010101"
       d="m 173.7,25.4 17,21.4 17,-21.4 1.6,0 -17.9,22.4 17.4,21.8 -1.6,0 -16.5,-20.8 -16.5,20.8 -1.6,0 17.4,-21.8 -18,-22.4 1.7,0 z"
       id="path5968" /><path
       style="fill:#010101"
       d="m 217.8,69.5 0,-44.1 1.2,0 0,44.1 -1.2,0 z"
       id="path5970" /><path
       style="fill:#010101"
       d="m 224.5,69.5 19.3,-44.2 1.1,0 19.2,44.2 -1.4,0 -6.9,-15.8 -23.1,0 -6.9,15.8 -1.3,0 z m 19.8,-42.3 -11.1,25.3 22,0 -10.9,-25.3 z"
       id="path5972" /><path
       style="fill:#010101"
       d="m 271.8,27.8 0,41.7 -1.2,0 0,-44.1 0.9,0 33.8,42.4 0,-42.4 1.2,0 0,44.1 -1.5,0 -33.2,-41.7 z"
       id="path5974" /></g></svg>
