<?xml version="1.0" encoding="UTF-8" standalone="no"?>
<svg
   xmlns:dc="http://purl.org/dc/elements/1.1/"
   xmlns:cc="http://creativecommons.org/ns#"
   xmlns:rdf="http://www.w3.org/1999/02/22-rdf-syntax-ns#"
   xmlns:svg="http://www.w3.org/2000/svg"
   xmlns="http://www.w3.org/2000/svg"
   height="175.43581mm"
   width="175.01854mm"
   viewBox="0 0 620.14443 621.62293"
   id="svg34988"
   version="1.1">
  <defs
     id="defs34994" />
  <metadata
     id="metadata34990">
    <rdf:RDF>
      <cc:Work
         rdf:about="">
        <dc:format>image/svg+xml</dc:format>
        <dc:type
           rdf:resource="http://purl.org/dc/dcmitype/StillImage" />
        <dc:title></dc:title>
      </cc:Work>
    </rdf:RDF>
  </metadata>
  <g
     id="light">
    <path
       
       d="m 181.2941,351.59755 27.6173,5.31496 0,10.62992 -27.5289,-5.45512 z"
       class="st0"
       id="path10150" />
    <path
       id="path10152"
       class="st0"
       d="m 162.8825,372.85739 0,10.62992 76.7148,44.29134 0,-10.62992 z"
        />
    <path
       id="path39558"
       class="st0"
       d="m 215.0505,307.34383 27.6173,5.31496 0,10.62992 -27.5289,-5.45512 z"
        />
    <path
       
       d="m 196.6389,328.60367 0,10.62992 76.7148,44.29134 0,-10.62992 z"
       class="st0"
       id="path39560" />
    <path
       
       d="m 248.6146,263.18495 27.6173,5.31496 0,10.62992 -27.5289,-5.45512 z"
       class="st0"
       id="path39572" />
    <path
       id="path39574"
       class="st0"
       d="m 230.203,284.44479 0,10.62992 76.7148,44.29134 0,-10.62992 z"
        />
    <path
       id="path39586"
       class="st0"
       d="m 282.3692,218.89361 27.6173,5.31496 0,10.62992 -27.5289,-5.45512 z"
        />
    <path
       
       d="m 263.9576,240.15345 0,10.62992 76.7148,44.29134 0,-10.62992 z"
       class="st0"
       id="path39588" />
    <path
       
       d="m 316.3141,174.46981 27.6173,5.31496 0,10.62992 -27.5289,-5.45512 z"
       class="st0"
       id="path39600" />
    <path
       id="path39602"
       class="st0"
       d="m 297.9025,195.72965 0,10.62992 76.7148,44.29134 0,-10.62992 z"
        />
    <path
       id="path39614"
       class="st0"
       d="m 350.0667,130.14085 27.6173,5.31496 0,10.62992 -27.5289,-5.45512 z"
        />
    <path
       
       d="m 331.6551,151.40069 0,10.62992 76.7148,44.29134 0,-10.62992 z"
       class="st0"
       id="path39616" />
    <path
       id="path39628"
       class="st0"
       d="m 258.0089,406.51881 27.6173,5.31496 0,10.62992 -27.5289,-5.45512 z"
        />
    <path
       
       d="m 239.5973,427.77865 0,10.62992 76.7148,44.29134 0,-10.62992 z"
       class="st0"
       id="path39630" />
    <path
       
       d="m 291.7653,362.26509 27.6173,5.31496 0,10.62992 -27.5289,-5.45512 z"
       class="st0"
       id="path39642" />
    <path
       id="path39644"
       class="st0"
       d="m 273.3537,383.52493 0,10.62992 76.7148,44.29134 0,-10.62992 z"
        />
    <path
       id="path39656"
       class="st0"
       d="m 325.3294,318.10621 27.6173,5.31496 0,10.62992 -27.5289,-5.45512 z"
        />
    <path
       
       d="m 306.9178,339.36605 0,10.62992 76.7148,44.29134 0,-10.62992 z"
       class="st0"
       id="path39658" />
    <path
       
       d="m 359.084,273.81487 27.6173,5.31496 0,10.62992 -27.5289,-5.45512 z"
       class="st0"
       id="path39670" />
    <path
       id="path39672"
       class="st0"
       d="m 340.6724,295.07471 0,10.62992 76.7148,44.29134 0,-10.62992 z"
        />
    <path
       id="path39684"
       class="st0"
       d="m 393.0289,229.39107 27.6173,5.31496 0,10.62992 -27.5289,-5.45512 z"
        />
    <path
       
       d="m 374.6173,250.65091 0,10.62992 76.7148,44.29134 0,-10.62992 z"
       class="st0"
       id="path39686" />
    <path
       
       d="m 426.7815,185.06211 27.6173,5.31496 0,10.62992 -27.5289,-5.45512 z"
       class="st0"
       id="path39698" />
    <path
       id="path39700"
       class="st0"
       d="m 408.3699,206.32195 0,10.62992 76.7148,44.29134 0,-10.62992 z"
        />
    <path
       
       d="m 334.7237,461.44007 27.6173,5.31496 0,10.62992 -27.5289,-5.45512 z"
       class="st0"
       id="path39712" />
    <path
       id="path39714"
       class="st0"
       d="m 316.3121,482.69991 0,10.62992 76.7148,44.29134 0,-10.62992 z"
        />
    <path
       id="path39726"
       class="st0"
       d="m 368.4802,417.18635 27.6173,5.31496 0,10.62992 -27.5289,-5.45512 z"
        />
    <path
       
       d="m 350.0686,438.44619 0,10.62992 76.7148,44.29134 0,-10.62992 z"
       class="st0"
       id="path39728" />
    <path
       
       d="m 402.0443,373.02747 27.6173,5.31496 0,10.62992 -27.5289,-5.45512 z"
       class="st0"
       id="path39740" />
    <path
       id="path39742"
       class="st0"
       d="m 383.6327,394.28731 0,10.62992 76.7148,44.29134 0,-10.62992 z"
        />
    <path
       id="path39754"
       class="st0"
       d="m 435.7988,328.73613 27.6173,5.31496 0,10.62992 -27.5289,-5.45512 z"
        />
    <path
       
       d="m 417.3872,349.99597 0,10.62992 76.7148,44.29134 0,-10.62992 z"
       class="st0"
       id="path39756" />
    <path
       
       d="m 469.7438,284.31233 27.6173,5.31496 0,10.62992 -27.5289,-5.45512 z"
       class="st0"
       id="path39768" />
    <path
       id="path39770"
       class="st0"
       d="m 451.3322,305.57217 0,10.62992 76.7148,44.29134 0,-10.62992 z"
        />
    <path
       id="path39782"
       class="st0"
       d="m 503.4964,239.98338 27.6173,5.31496 0,10.62992 -27.5289,-5.45512 z"
        />
    <path
       
       d="m 485.0848,261.24322 0,10.62992 76.7148,44.29134 0,-10.62992 z"
       class="st0"
       id="path39784" />
    <path
       id="path39796"
       class="st0"
       d="m 104.7677,296.50621 27.6173,5.31496 0,10.62992 -27.5289,-5.45512 z"
        />
    <path
       
       d="m 86.3561,317.76605 0,10.62992 76.7148,44.29134 0,-10.62992 z"
       class="st0"
       id="path39798" />
    <path
       
       d="m 138.5241,252.25249 27.6173,5.31496 0,10.62992 -27.5289,-5.45512 z"
       class="st0"
       id="path39810" />
    <path
       id="path39812"
       class="st0"
       d="m 120.1125,273.51233 0,10.62992 76.7148,44.29134 0,-10.62992 z"
        />
    <path
       id="path39824"
       class="st0"
       d="m 172.0883,208.09361 27.6173,5.31496 0,10.62992 -27.5289,-5.45512 z"
        />
    <path
       
       d="m 153.6767,229.35345 0,10.62992 76.7148,44.29134 0,-10.62992 z"
       class="st0"
       id="path39826" />
    <path
       
       d="m 205.8428,163.80227 27.6173,5.31496 0,10.62992 -27.5289,-5.45512 z"
       class="st0"
       id="path39838" />
    <path
       id="path39840"
       class="st0"
       d="m 187.4312,185.06211 0,10.62992 76.7148,44.29134 0,-10.62992 z"
        />
    <path
       id="path39852"
       class="st0"
       d="m 239.7877,119.37847 27.6173,5.31496 0,10.62992 -27.5289,-5.45512 z"
        />
    <path
       
       d="m 221.3761,140.63831 0,10.62992 76.7148,44.29134 0,-10.62992 z"
       class="st0"
       id="path39854" />
    <path
       
       d="m 273.5403,75.04951 27.6173,5.31496 0,10.62992 -27.5289,-5.45512 z"
       class="st0"
       id="path39866" />
    <path
       id="path39868"
       class="st0"
       d="m 255.1287,96.30935 0,10.62992 76.7148,44.29134 0,-10.62992 z"
        />
  </g>
  <g
     id="dark"
     transform="translate(0,-4.3819973e-6)">
    <path
       
       d="m 193.5665,401.16623 0,-10.62992 18.4135,-10.59231 0,10.62993 z"
       class="st3"
       id="path10146" />
    <path
       
       d="m 162.8825,372.85739 0,-10.62992 18.4116,-10.62992 0,10.62992 z"
       class="st3"
       id="path10148" />
    <path
       
       d="m 175.1569,411.83377 0,-10.62992 18.6,-10.8 0,10.62992 z"
       class="st3"
       id="path10154" />
    <path
       
       d="m 211.98,443.72353 0,-10.62992 27.6173,-15.94488 0,10.62992 z"
       class="st3"
       id="path10158" />
    <path
       id="path39554"
       class="st3"
       d="m 227.3229,356.91251 0,-10.62992 18.4135,-10.59231 0,10.62993 z"
        />
    <path
       id="path39556"
       class="st3"
       d="m 196.6389,328.60367 0,-10.62992 18.4116,-10.62992 0,10.62992 z"
        />
    <path
       id="path39562"
       class="st3"
       d="m 208.9133,367.58005 0,-10.62992 18.6,-10.8 0,10.62992 z"
        />
    <path
       id="path39564"
       class="st3"
       d="m 245.7364,399.46981 0,-10.62992 27.6173,-15.94488 0,10.62992 z"
        />
    <path
       
       d="m 260.887,312.75363 0,-10.62992 18.4135,-10.59231 0,10.62993 z"
       class="st3"
       id="path39568" />
    <path
       
       d="m 230.203,284.44479 0,-10.62992 18.4116,-10.62992 0,10.62992 z"
       class="st3"
       id="path39570" />
    <path
       
       d="m 242.4774,323.42117 0,-10.62992 18.6,-10.8 0,10.62992 z"
       class="st3"
       id="path39576" />
    <path
       
       d="m 279.3005,355.31093 0,-10.62992 27.6173,-15.94488 0,10.62992 z"
       class="st3"
       id="path39578" />
    <path
       id="path39582"
       class="st3"
       d="m 294.6416,268.46229 0,-10.62992 18.4135,-10.59231 0,10.62993 z"
        />
    <path
       id="path39584"
       class="st3"
       d="m 263.9576,240.15345 0,-10.62992 18.4116,-10.62992 0,10.62992 z"
        />
    <path
       id="path39590"
       class="st3"
       d="m 276.232,279.12983 0,-10.62992 18.6,-10.8 0,10.62992 z"
        />
    <path
       id="path39592"
       class="st3"
       d="m 313.0551,311.01959 0,-10.62992 27.6173,-15.94488 0,10.62992 z"
        />
    <path
       
       d="m 328.5865,224.03849 0,-10.62992 18.4135,-10.59231 0,10.62993 z"
       class="st3"
       id="path39596" />
    <path
       
       d="m 297.9025,195.72965 0,-10.62992 18.4116,-10.62992 0,10.62992 z"
       class="st3"
       id="path39598" />
    <path
       
       d="m 310.1769,234.70603 0,-10.62992 18.6,-10.8 0,10.62992 z"
       class="st3"
       id="path39604" />
    <path
       
       d="m 347,266.59579 0,-10.62992 27.6173,-15.94488 0,10.62992 z"
       class="st3"
       id="path39606" />
    <path
       id="path39610"
       class="st3"
       d="m 362.3391,179.70953 0,-10.62992 18.4135,-10.59231 0,10.62993 z"
        />
    <path
       id="path39612"
       class="st3"
       d="m 331.6551,151.40069 0,-10.62992 18.4116,-10.62992 0,10.62992 z"
        />
    <path
       id="path39618"
       class="st3"
       d="m 343.9295,190.37707 0,-10.62992 18.6,-10.8 0,10.62992 z"
        />
    <path
       id="path39620"
       class="st3"
       d="m 380.7526,222.26683 0,-10.62992 27.6173,-15.94488 0,10.62992 z"
        />
    <path
       id="path39624"
       class="st3"
       d="m 270.2813,456.08749 0,-10.62992 18.4135,-10.59231 0,10.62993 z"
        />
    <path
       id="path39626"
       class="st3"
       d="m 239.5973,427.77865 0,-10.62992 18.4116,-10.62992 0,10.62992 z"
        />
    <path
       id="path39632"
       class="st3"
       d="m 251.8717,466.75503 0,-10.62992 18.6,-10.8 0,10.62992 z"
        />
    <path
       id="path39634"
       class="st3"
       d="m 288.6948,498.64479 0,-10.62992 27.6173,-15.94488 0,10.62992 z"
        />
    <path
       
       d="m 304.0377,411.83377 0,-10.62992 18.4135,-10.59231 0,10.62993 z"
       class="st3"
       id="path39638" />
    <path
       
       d="m 273.3537,383.52493 0,-10.62992 18.4116,-10.62992 0,10.62992 z"
       class="st3"
       id="path39640" />
    <path
       
       d="m 285.6281,422.50131 0,-10.62992 18.6,-10.8 0,10.62992 z"
       class="st3"
       id="path39646" />
    <path
       
       d="m 322.4512,454.39107 0,-10.62992 27.6173,-15.94488 0,10.62992 z"
       class="st3"
       id="path39648" />
    <path
       id="path39652"
       class="st3"
       d="m 337.6018,367.67489 0,-10.62992 18.4135,-10.59231 0,10.62993 z"
        />
    <path
       id="path39654"
       class="st3"
       d="m 306.9178,339.36605 0,-10.62992 18.4116,-10.62992 0,10.62992 z"
        />
    <path
       id="path39660"
       class="st3"
       d="m 319.1922,378.34243 0,-10.62992 18.6,-10.8 0,10.62992 z"
        />
    <path
       id="path39662"
       class="st3"
       d="m 356.0153,410.23219 0,-10.62992 27.6173,-15.94488 0,10.62992 z"
        />
    <path
       
       d="m 371.3564,323.38355 0,-10.62992 18.4135,-10.59231 0,10.62993 z"
       class="st3"
       id="path39666" />
    <path
       
       d="m 340.6724,295.07471 0,-10.62992 18.4116,-10.62992 0,10.62992 z"
       class="st3"
       id="path39668" />
    <path
       
       d="m 352.9468,334.05109 0,-10.62992 18.6,-10.8 0,10.62992 z"
       class="st3"
       id="path39674" />
    <path
       
       d="m 389.7699,365.94085 0,-10.62992 27.6173,-15.94488 0,10.62992 z"
       class="st3"
       id="path39676" />
    <path
       id="path39680"
       class="st3"
       d="m 405.3013,278.95975 0,-10.62992 18.4135,-10.59231 0,10.62993 z"
        />
    <path
       id="path39682"
       class="st3"
       d="m 374.6173,250.65091 0,-10.62992 18.4116,-10.62992 0,10.62992 z"
        />
    <path
       id="path39688"
       class="st3"
       d="m 386.8917,289.62729 0,-10.62992 18.6,-10.8 0,10.62992 z"
        />
    <path
       id="path39690"
       class="st3"
       d="m 423.7148,321.51705 0,-10.62992 27.6173,-15.94488 0,10.62992 z"
        />
    <path
       
       d="m 439.0539,234.63079 0,-10.62992 18.4135,-10.59231 0,10.62993 z"
       class="st3"
       id="path39694" />
    <path
       
       d="m 408.3699,206.32195 0,-10.62992 18.4116,-10.62992 0,10.62992 z"
       class="st3"
       id="path39696" />
    <path
       
       d="m 420.6443,245.29833 0,-10.62992 18.6,-10.8 0,10.62992 z"
       class="st3"
       id="path39702" />
    <path
       
       d="m 457.4674,277.18809 0,-10.62992 27.6173,-15.94488 0,10.62992 z"
       class="st3"
       id="path39704" />
    <path
       
       d="m 346.9961,511.00875 0,-10.62992 18.4135,-10.59231 0,10.62993 z"
       class="st3"
       id="path39708" />
    <path
       
       d="m 316.3121,482.69991 0,-10.62992 18.4116,-10.62992 0,10.62992 z"
       class="st3"
       id="path39710" />
    <path
       
       d="m 328.5865,521.67629 0,-10.62992 18.6,-10.8 0,10.62992 z"
       class="st3"
       id="path39716" />
    <path
       
       d="m 365.4096,553.56605 0,-10.62992 27.6173,-15.94488 0,10.62992 z"
       class="st3"
       id="path39718" />
    <path
       id="path39722"
       class="st3"
       d="m 380.7526,466.75503 0,-10.62992 18.4135,-10.59231 0,10.62993 z"
        />
    <path
       id="path39724"
       class="st3"
       d="m 350.0686,438.44619 0,-10.62992 18.4116,-10.62992 0,10.62992 z"
        />
    <path
       id="path39730"
       class="st3"
       d="m 362.343,477.42257 0,-10.62992 18.6,-10.8 0,10.62992 z"
        />
    <path
       id="path39732"
       class="st3"
       d="m 399.1661,509.31233 0,-10.62992 27.6173,-15.94488 0,10.62992 z"
        />
    <path
       
       d="m 414.3167,422.59615 0,-10.62992 18.4135,-10.59231 0,10.62993 z"
       class="st3"
       id="path39736" />
    <path
       
       d="m 383.6327,394.28731 0,-10.62992 18.4116,-10.62992 0,10.62992 z"
       class="st3"
       id="path39738" />
    <path
       
       d="m 395.9071,433.26369 0,-10.62992 18.6,-10.8 0,10.62992 z"
       class="st3"
       id="path39744" />
    <path
       
       d="m 432.7302,465.15345 0,-10.62992 27.6173,-15.94488 0,10.62992 z"
       class="st3"
       id="path39746" />
    <path
       id="path39750"
       class="st3"
       d="m 448.0712,378.30481 0,-10.62992 18.4135,-10.59231 0,10.62993 z"
        />
    <path
       id="path39752"
       class="st3"
       d="m 417.3872,349.99597 0,-10.62992 18.4116,-10.62992 0,10.62992 z"
        />
    <path
       id="path39758"
       class="st3"
       d="m 429.6616,388.97235 0,-10.62992 18.6,-10.8 0,10.62992 z"
        />
    <path
       id="path39760"
       class="st3"
       d="m 466.4847,420.86211 0,-10.62992 27.6173,-15.94488 0,10.62992 z"
        />
    <path
       
       d="m 482.0162,333.88101 0,-10.62992 18.4135,-10.59231 0,10.62993 z"
       class="st3"
       id="path39764" />
    <path
       
       d="m 451.3322,305.57217 0,-10.62992 18.4116,-10.62992 0,10.62992 z"
       class="st3"
       id="path39766" />
    <path
       
       d="m 463.6066,344.54855 0,-10.62992 18.6,-10.8 0,10.62992 z"
       class="st3"
       id="path39772" />
    <path
       
       d="m 500.4297,376.43831 0,-10.62992 27.6173,-15.94488 0,10.62992 z"
       class="st3"
       id="path39774" />
    <path
       id="path39778"
       class="st3"
       d="m 515.7688,289.55206 0,-10.62992 18.4135,-10.59231 0,10.62993 z"
        />
    <path
       id="path39780"
       class="st3"
       d="m 485.0848,261.24322 0,-10.62992 18.4116,-10.62992 0,10.62992 z"
        />
    <path
       id="path39786"
       class="st3"
       d="m 497.3592,300.2196 0,-10.62992 18.6,-10.8 0,10.62992 z"
        />
    <path
       id="path39788"
       class="st3"
       d="m 534.1823,332.10936 0,-10.62992 27.6173,-15.94488 0,10.62992 z"
        />
    <path
       id="path39792"
       class="st3"
       d="m 117.0401,346.07489 0,-10.62992 18.4135,-10.59231 0,10.62993 z"
        />
    <path
       id="path39794"
       class="st3"
       d="m 86.3561,317.76605 0,-10.62992 18.4116,-10.62992 0,10.62992 z"
        />
    <path
       id="path39800"
       class="st3"
       d="m 98.6305,356.74243 0,-10.62992 18.6,-10.8 0,10.62992 z"
        />
    <path
       id="path39802"
       class="st3"
       d="m 135.4536,388.63219 0,-10.62992 27.6173,-15.94488 0,10.62992 z"
        />
    <path
       
       d="m 150.7965,301.82117 0,-10.62992 18.4135,-10.59231 0,10.62993 z"
       class="st3"
       id="path39806" />
    <path
       
       d="m 120.1125,273.51233 0,-10.62992 18.4116,-10.62992 0,10.62992 z"
       class="st3"
       id="path39808" />
    <path
       
       d="m 132.3869,312.48871 0,-10.62992 18.6,-10.8 0,10.62992 z"
       class="st3"
       id="path39814" />
    <path
       
       d="m 169.21,344.37847 0,-10.62992 27.6173,-15.94488 0,10.62992 z"
       class="st3"
       id="path39816" />
    <path
       id="path39820"
       class="st3"
       d="m 184.3607,257.66229 0,-10.62992 18.4135,-10.59231 0,10.62993 z"
        />
    <path
       id="path39822"
       class="st3"
       d="m 153.6767,229.35345 0,-10.62992 18.4116,-10.62992 0,10.62992 z"
        />
    <path
       id="path39828"
       class="st3"
       d="m 165.9511,268.32983 0,-10.62992 18.6,-10.8 0,10.62992 z"
        />
    <path
       id="path39830"
       class="st3"
       d="m 202.7742,300.21959 0,-10.62992 27.6173,-15.94488 0,10.62992 z"
        />
    <path
       
       d="m 218.1152,213.37095 0,-10.62992 18.4135,-10.59231 0,10.62993 z"
       class="st3"
       id="path39834" />
    <path
       
       d="m 187.4312,185.06211 0,-10.62992 18.4116,-10.62992 0,10.62992 z"
       class="st3"
       id="path39836" />
    <path
       
       d="m 199.7056,224.03849 0,-10.62992 18.6,-10.8 0,10.62992 z"
       class="st3"
       id="path39842" />
    <path
       
       d="m 236.5287,255.92825 0,-10.62992 27.6173,-15.94488 0,10.62992 z"
       class="st3"
       id="path39844" />
    <path
       id="path39848"
       class="st3"
       d="m 252.0601,168.94715 0,-10.62992 18.4135,-10.59231 0,10.62993 z"
        />
    <path
       id="path39850"
       class="st3"
       d="m 221.3761,140.63831 0,-10.62992 18.4116,-10.62992 0,10.62992 z"
        />
    <path
       id="path39856"
       class="st3"
       d="m 233.6505,179.61469 0,-10.62992 18.6,-10.8 0,10.62992 z"
        />
    <path
       id="path39858"
       class="st3"
       d="m 270.4736,211.50445 0,-10.62992 27.6173,-15.94488 0,10.62992 z"
        />
    <path
       
       d="m 285.8127,124.61819 0,-10.62992 18.4135,-10.59231 0,10.62993 z"
       class="st3"
       id="path39862" />
    <path
       
       d="m 255.1287,96.30935 0,-10.62992 18.4116,-10.62992 0,10.62992 z"
       class="st3"
       id="path39864" />
    <path
       
       d="m 267.4031,135.28573 0,-10.62992 18.6,-10.8 0,10.62992 z"
       class="st3"
       id="path39870" />
    <path
       
       d="m 304.2262,167.17549 0,-10.62992 27.6173,-15.94488 0,10.62992 z"
       class="st3"
       id="path39872" />
  </g>
</svg>
